<?xml version="1.0" encoding="UTF-8" standalone="no"?>
<!DOCTYPE svg PUBLIC "-//W3C//DTD SVG 1.1//EN"
 "http://www.w3.org/Graphics/SVG/1.1/DTD/svg11.dtd">
<!-- Generated by graphviz version 2.38.0 (20140413.2041)
 -->
<!-- Title: TCPDF Pages: 1 -->
<svg width="165pt" height="358pt"
 viewBox="0.00 0.00 165.00 358.00" xmlns="http://www.w3.org/2000/svg" xmlns:xlink="http://www.w3.org/1999/xlink">
<g id="graph0" class="graph" transform="scale(1 1) rotate(0) translate(4 354)">
<title>TCPDF</title>
<polygon fill="white" stroke="none" points="-4,4 -4,-354 161,-354 161,4 -4,4"/>
<!-- Node1 -->
<g id="node1" class="node"><title>Node1</title>
<polygon fill="#bfbfbf" stroke="black" points="54.5,-292.5 54.5,-349.5 102.5,-349.5 102.5,-292.5 54.5,-292.5"/>
<text text-anchor="middle" x="78.5" y="-337.5" font-family="Helvetica,sans-Serif" font-size="10.00">TCPDF</text>
<polyline fill="none" stroke="black" points="54.5,-330.5 102.5,-330.5 "/>
<text text-anchor="middle" x="78.5" y="-318.5" font-family="Helvetica,sans-Serif" font-size="10.00"> </text>
<polyline fill="none" stroke="black" points="54.5,-311.5 102.5,-311.5 "/>
<text text-anchor="middle" x="78.5" y="-299.5" font-family="Helvetica,sans-Serif" font-size="10.00"> </text>
</g>
<!-- Node2 -->
<g id="node2" class="node"><title>Node2</title>
<g id="a_node2"><a xlink:href="classoverview_p_d_f.html" target="_top" xlink:title="Class for PDF document generation from curricula data. ">
<polygon fill="white" stroke="black" points="0,-0.5 0,-255.5 157,-255.5 157,-0.5 0,-0.5"/>
<text text-anchor="middle" x="78.5" y="-243.5" font-family="Helvetica,sans-Serif" font-size="10.00">overviewPDF</text>
<polyline fill="none" stroke="black" points="0,-236.5 157,-236.5 "/>
<text text-anchor="start" x="8" y="-224.5" font-family="Helvetica,sans-Serif" font-size="10.00">&#45; $aIndices</text>
<polyline fill="none" stroke="black" points="0,-217.5 157,-217.5 "/>
<text text-anchor="start" x="8" y="-205.5" font-family="Helvetica,sans-Serif" font-size="10.00">+ Footer()</text>
<text text-anchor="start" x="8" y="-194.5" font-family="Helvetica,sans-Serif" font-size="10.00">+ createPDF()</text>
<text text-anchor="start" x="8" y="-183.5" font-family="Helvetica,sans-Serif" font-size="10.00">+ Error()</text>
<text text-anchor="start" x="8" y="-172.5" font-family="Helvetica,sans-Serif" font-size="10.00">&#45; getNextIndex()</text>
<text text-anchor="start" x="8" y="-161.5" font-family="Helvetica,sans-Serif" font-size="10.00">&#45; getTotalY()</text>
<text text-anchor="start" x="8" y="-150.5" font-family="Helvetica,sans-Serif" font-size="10.00">&#45; createTOCPage()</text>
<text text-anchor="start" x="8" y="-139.5" font-family="Helvetica,sans-Serif" font-size="10.00">&#45; getUniqueFilename()</text>
<text text-anchor="start" x="8" y="-128.5" font-family="Helvetica,sans-Serif" font-size="10.00">&#45; printCurriculum()</text>
<text text-anchor="start" x="8" y="-117.5" font-family="Helvetica,sans-Serif" font-size="10.00">&#45; printTopLevel()</text>
<text text-anchor="start" x="8" y="-106.5" font-family="Helvetica,sans-Serif" font-size="10.00">&#45; printFach()</text>
<text text-anchor="start" x="8" y="-95.5" font-family="Helvetica,sans-Serif" font-size="10.00">&#45; generateTableRecHelper()</text>
<text text-anchor="start" x="8" y="-84.5" font-family="Helvetica,sans-Serif" font-size="10.00">&#45; splitBoldTextIntoLines()</text>
<text text-anchor="start" x="8" y="-73.5" font-family="Helvetica,sans-Serif" font-size="10.00">&#45; splitRecHelper()</text>
<text text-anchor="start" x="8" y="-62.5" font-family="Helvetica,sans-Serif" font-size="10.00">&#45; printZieleInhalte()</text>
<text text-anchor="start" x="8" y="-51.5" font-family="Helvetica,sans-Serif" font-size="10.00">&#45; printHeading()</text>
<text text-anchor="start" x="8" y="-40.5" font-family="Helvetica,sans-Serif" font-size="10.00">&#45; getHTMLHeight()</text>
<text text-anchor="start" x="8" y="-29.5" font-family="Helvetica,sans-Serif" font-size="10.00">&#45; getCourses()</text>
<text text-anchor="start" x="8" y="-18.5" font-family="Helvetica,sans-Serif" font-size="10.00">&#45; assertAttributes()</text>
<text text-anchor="start" x="8" y="-7.5" font-family="Helvetica,sans-Serif" font-size="10.00">&#45; convertStringToValidFilename()</text>
</a>
</g>
</g>
<!-- Node1&#45;&gt;Node2 -->
<g id="edge1" class="edge"><title>Node1&#45;&gt;Node2</title>
<path fill="none" stroke="midnightblue" d="M78.5,-282.196C78.5,-274.157 78.5,-265.246 78.5,-255.881"/>
<polygon fill="none" stroke="midnightblue" points="75.0001,-282.227 78.5,-292.227 82.0001,-282.227 75.0001,-282.227"/>
</g>
</g>
</svg>
