<?xml version="1.0" encoding="UTF-8" standalone="no"?>
<!DOCTYPE svg PUBLIC "-//W3C//DTD SVG 1.1//EN"
 "http://www.w3.org/Graphics/SVG/1.1/DTD/svg11.dtd">
<!-- Generated by graphviz version 2.38.0 (20140413.2041)
 -->
<!-- Title: createPDF Pages: 1 -->
<svg width="193pt" height="66pt"
 viewBox="0.00 0.00 193.00 66.00" xmlns="http://www.w3.org/2000/svg" xmlns:xlink="http://www.w3.org/1999/xlink">
<g id="graph0" class="graph" transform="scale(1 1) rotate(0) translate(4 62)">
<title>createPDF</title>
<polygon fill="white" stroke="none" points="-4,4 -4,-62 189,-62 189,4 -4,4"/>
<!-- Node1 -->
<g id="node1" class="node"><title>Node1</title>
<polygon fill="#bfbfbf" stroke="black" points="0,-19.5 0,-38.5 63,-38.5 63,-19.5 0,-19.5"/>
<text text-anchor="middle" x="31.5" y="-26.5" font-family="Helvetica,sans-Serif" font-size="10.00">createPDF</text>
</g>
<!-- Node2 -->
<g id="node2" class="node"><title>Node2</title>
<g id="a_node2"><a xlink:href="classoverview_p_d_f.html#acf4bdf38a6e11c036b076a16c3516f75" target="_top" xlink:title="Adds a table of contents page to the PDF document. ">
<polygon fill="white" stroke="black" points="99,-38.5 99,-57.5 185,-57.5 185,-38.5 99,-38.5"/>
<text text-anchor="middle" x="142" y="-45.5" font-family="Helvetica,sans-Serif" font-size="10.00">createTOCPage</text>
</a>
</g>
</g>
<!-- Node1&#45;&gt;Node2 -->
<g id="edge1" class="edge"><title>Node1&#45;&gt;Node2</title>
<path fill="none" stroke="midnightblue" d="M63.012,-34.3431C71.1182,-35.7626 80.1051,-37.3364 89.0107,-38.8959"/>
<polygon fill="midnightblue" stroke="midnightblue" points="88.5256,-42.3641 98.9795,-40.6416 89.7331,-35.469 88.5256,-42.3641"/>
</g>
<!-- Node3 -->
<g id="node3" class="node"><title>Node3</title>
<g id="a_node3"><a xlink:href="classoverview_p_d_f.html#a1871e6880b3bb67d0a49cdcab4cd680d" target="_top" xlink:title="Prints a curriculum object and all its courses to the PDF document. ">
<polygon fill="white" stroke="red" points="101,-0.5 101,-19.5 183,-19.5 183,-0.5 101,-0.5"/>
<text text-anchor="middle" x="142" y="-7.5" font-family="Helvetica,sans-Serif" font-size="10.00">printCurriculum</text>
</a>
</g>
</g>
<!-- Node1&#45;&gt;Node3 -->
<g id="edge2" class="edge"><title>Node1&#45;&gt;Node3</title>
<path fill="none" stroke="midnightblue" d="M63.012,-23.6569C71.7577,-22.1254 81.5286,-20.4143 91.1165,-18.7354"/>
<polygon fill="midnightblue" stroke="midnightblue" points="91.7447,-22.1787 100.991,-17.0062 90.5372,-15.2836 91.7447,-22.1787"/>
</g>
</g>
</svg>
