<?xml version="1.0" encoding="UTF-8" standalone="no"?>
<!DOCTYPE svg PUBLIC "-//W3C//DTD SVG 1.1//EN"
 "http://www.w3.org/Graphics/SVG/1.1/DTD/svg11.dtd">
<!-- Generated by graphviz version 2.38.0 (20140413.2041)
 -->
<!-- Title: printFach Pages: 1 -->
<svg width="223pt" height="142pt"
 viewBox="0.00 0.00 223.00 142.00" xmlns="http://www.w3.org/2000/svg" xmlns:xlink="http://www.w3.org/1999/xlink">
<g id="graph0" class="graph" transform="scale(1 1) rotate(0) translate(4 138)">
<title>printFach</title>
<polygon fill="white" stroke="none" points="-4,4 -4,-138 219,-138 219,4 -4,4"/>
<!-- Node1 -->
<g id="node1" class="node"><title>Node1</title>
<polygon fill="#bfbfbf" stroke="black" points="0,-57.5 0,-76.5 57,-76.5 57,-57.5 0,-57.5"/>
<text text-anchor="middle" x="28.5" y="-64.5" font-family="Helvetica,sans-Serif" font-size="10.00">printFach</text>
</g>
<!-- Node2 -->
<g id="node2" class="node"><title>Node2</title>
<g id="a_node2"><a xlink:href="classoverview_p_d_f.html#ad0ea6c6476d690b08161300e40926dc6" target="_top" xlink:title="Recursive function for generating overview table. ">
<polygon fill="white" stroke="red" points="93,-114.5 93,-133.5 215,-133.5 215,-114.5 93,-114.5"/>
<text text-anchor="middle" x="154" y="-121.5" font-family="Helvetica,sans-Serif" font-size="10.00">generateTableRecHelper</text>
</a>
</g>
</g>
<!-- Node1&#45;&gt;Node2 -->
<g id="edge1" class="edge"><title>Node1&#45;&gt;Node2</title>
<path fill="none" stroke="midnightblue" d="M43.6083,-76.7501C56.1453,-85.0907 75.1927,-96.9843 93,-105 97.9818,-107.242 103.306,-109.334 108.65,-111.247"/>
<polygon fill="midnightblue" stroke="midnightblue" points="107.624,-114.595 118.218,-114.494 109.873,-107.967 107.624,-114.595"/>
</g>
<!-- Node3 -->
<g id="node3" class="node"><title>Node3</title>
<g id="a_node3"><a xlink:href="classoverview_p_d_f.html#af41675b946292789cecd9416ca809bcc" target="_top" xlink:title="Determines height of HTML Code. ">
<polygon fill="white" stroke="black" points="112.5,-76.5 112.5,-95.5 195.5,-95.5 195.5,-76.5 112.5,-76.5"/>
<text text-anchor="middle" x="154" y="-83.5" font-family="Helvetica,sans-Serif" font-size="10.00">getHTMLHeight</text>
</a>
</g>
</g>
<!-- Node1&#45;&gt;Node3 -->
<g id="edge2" class="edge"><title>Node1&#45;&gt;Node3</title>
<path fill="none" stroke="midnightblue" d="M57.2158,-71.264C70.5169,-73.3103 86.8819,-75.828 102.297,-78.1996"/>
<polygon fill="midnightblue" stroke="midnightblue" points="101.833,-81.6692 112.249,-79.7306 102.897,-74.7506 101.833,-81.6692"/>
</g>
<!-- Node4 -->
<g id="node4" class="node"><title>Node4</title>
<g id="a_node4"><a xlink:href="classoverview_p_d_f.html#ad6b57d30526fb658521faddce7595dc4" target="_top" xlink:title="Prints a heading to the PDF document. ">
<polygon fill="white" stroke="red" points="118.5,-38.5 118.5,-57.5 189.5,-57.5 189.5,-38.5 118.5,-38.5"/>
<text text-anchor="middle" x="154" y="-45.5" font-family="Helvetica,sans-Serif" font-size="10.00">printHeading</text>
</a>
</g>
</g>
<!-- Node1&#45;&gt;Node4 -->
<g id="edge3" class="edge"><title>Node1&#45;&gt;Node4</title>
<path fill="none" stroke="midnightblue" d="M57.2158,-62.736C72.1748,-60.4346 91.0091,-57.5371 108.01,-54.9216"/>
<polygon fill="midnightblue" stroke="midnightblue" points="108.955,-58.3173 118.307,-53.3374 107.891,-51.3987 108.955,-58.3173"/>
</g>
<!-- Node5 -->
<g id="node5" class="node"><title>Node5</title>
<g id="a_node5"><a xlink:href="classoverview_p_d_f.html#af0b14d64b47fe81df7965b8259ccb762" target="_top" xlink:title="Prints the course goals and content of teaching and their respecitve headings to the document...">
<polygon fill="white" stroke="black" points="112,-0.5 112,-19.5 196,-19.5 196,-0.5 112,-0.5"/>
<text text-anchor="middle" x="154" y="-7.5" font-family="Helvetica,sans-Serif" font-size="10.00">printZieleInhalte</text>
</a>
</g>
</g>
<!-- Node1&#45;&gt;Node5 -->
<g id="edge4" class="edge"><title>Node1&#45;&gt;Node5</title>
<path fill="none" stroke="midnightblue" d="M43.6083,-57.2499C56.1453,-48.9093 75.1927,-37.0157 93,-29 97.9818,-26.7575 103.306,-24.6662 108.65,-22.7526"/>
<polygon fill="midnightblue" stroke="midnightblue" points="109.873,-26.0334 118.218,-19.5056 107.624,-19.4047 109.873,-26.0334"/>
</g>
</g>
</svg>
