<?xml version="1.0" encoding="UTF-8" standalone="no"?>
<!DOCTYPE svg PUBLIC "-//W3C//DTD SVG 1.1//EN"
 "http://www.w3.org/Graphics/SVG/1.1/DTD/svg11.dtd">
<!-- Generated by graphviz version 2.38.0 (20140413.2041)
 -->
<!-- Title: printCurriculum Pages: 1 -->
<svg width="306pt" height="104pt"
 viewBox="0.00 0.00 306.00 104.00" xmlns="http://www.w3.org/2000/svg" xmlns:xlink="http://www.w3.org/1999/xlink">
<g id="graph0" class="graph" transform="scale(1 1) rotate(0) translate(4 100)">
<title>printCurriculum</title>
<polygon fill="white" stroke="none" points="-4,4 -4,-100 302,-100 302,4 -4,4"/>
<!-- Node1 -->
<g id="node1" class="node"><title>Node1</title>
<polygon fill="#bfbfbf" stroke="black" points="0,-38.5 0,-57.5 82,-57.5 82,-38.5 0,-38.5"/>
<text text-anchor="middle" x="41" y="-45.5" font-family="Helvetica,sans-Serif" font-size="10.00">printCurriculum</text>
</g>
<!-- Node2 -->
<g id="node2" class="node"><title>Node2</title>
<g id="a_node2"><a xlink:href="classoverview_p_d_f.html#a921bc685431e16db85dc8ef8491f90a4" target="_top" xlink:title="Gets all courses for a given curriculum id. ">
<polygon fill="white" stroke="red" points="121.5,-76.5 121.5,-95.5 187.5,-95.5 187.5,-76.5 121.5,-76.5"/>
<text text-anchor="middle" x="154.5" y="-83.5" font-family="Helvetica,sans-Serif" font-size="10.00">getCourses</text>
</a>
</g>
</g>
<!-- Node1&#45;&gt;Node2 -->
<g id="edge1" class="edge"><title>Node1&#45;&gt;Node2</title>
<path fill="none" stroke="midnightblue" d="M70.1362,-57.589C84.0015,-62.3144 100.916,-68.0789 115.876,-73.1774"/>
<polygon fill="midnightblue" stroke="midnightblue" points="114.778,-76.501 125.373,-76.4141 117.037,-69.8752 114.778,-76.501"/>
</g>
<!-- Node3 -->
<g id="node3" class="node"><title>Node3</title>
<g id="a_node3"><a xlink:href="classoverview_p_d_f.html#ad6b57d30526fb658521faddce7595dc4" target="_top" xlink:title="Prints a heading to the PDF document. ">
<polygon fill="white" stroke="red" points="227,-19.5 227,-38.5 298,-38.5 298,-19.5 227,-19.5"/>
<text text-anchor="middle" x="262.5" y="-26.5" font-family="Helvetica,sans-Serif" font-size="10.00">printHeading</text>
</a>
</g>
</g>
<!-- Node1&#45;&gt;Node3 -->
<g id="edge2" class="edge"><title>Node1&#45;&gt;Node3</title>
<path fill="none" stroke="midnightblue" d="M82.0045,-44.5372C120.031,-41.2456 177.131,-36.303 216.675,-32.8801"/>
<polygon fill="midnightblue" stroke="midnightblue" points="217.168,-36.3506 226.829,-32.0011 216.564,-29.3767 217.168,-36.3506"/>
</g>
<!-- Node4 -->
<g id="node4" class="node"><title>Node4</title>
<g id="a_node4"><a xlink:href="classoverview_p_d_f.html#a23c7451efb8c436590fbad032bc6788b" target="_top" xlink:title="Decides whether to print a structural element or a subject. ">
<polygon fill="white" stroke="red" points="118,-0.5 118,-19.5 191,-19.5 191,-0.5 118,-0.5"/>
<text text-anchor="middle" x="154.5" y="-7.5" font-family="Helvetica,sans-Serif" font-size="10.00">printTopLevel</text>
</a>
</g>
</g>
<!-- Node1&#45;&gt;Node4 -->
<g id="edge3" class="edge"><title>Node1&#45;&gt;Node4</title>
<path fill="none" stroke="midnightblue" d="M70.1362,-38.411C84.0015,-33.6856 100.916,-27.9211 115.876,-22.8226"/>
<polygon fill="midnightblue" stroke="midnightblue" points="117.037,-26.1248 125.373,-19.5859 114.778,-19.499 117.037,-26.1248"/>
</g>
<!-- Node4&#45;&gt;Node3 -->
<g id="edge4" class="edge"><title>Node4&#45;&gt;Node3</title>
<path fill="none" stroke="midnightblue" d="M191.091,-16.3796C199.391,-17.8673 208.332,-19.4699 216.965,-21.0174"/>
<polygon fill="midnightblue" stroke="midnightblue" points="216.441,-24.4791 226.902,-22.7984 217.676,-17.5889 216.441,-24.4791"/>
</g>
</g>
</svg>
