<?xml version="1.0" encoding="UTF-8" standalone="no"?>
<!DOCTYPE svg PUBLIC "-//W3C//DTD SVG 1.1//EN"
 "http://www.w3.org/Graphics/SVG/1.1/DTD/svg11.dtd">
<!-- Generated by graphviz version 2.38.0 (20140413.2041)
 -->
<!-- Title: printTopLevel Pages: 1 -->
<svg width="281pt" height="47pt"
 viewBox="0.00 0.00 281.00 47.00" xmlns="http://www.w3.org/2000/svg" xmlns:xlink="http://www.w3.org/1999/xlink">
<g id="graph0" class="graph" transform="scale(1 1) rotate(0) translate(4 43)">
<title>printTopLevel</title>
<polygon fill="white" stroke="none" points="-4,4 -4,-43 277,-43 277,4 -4,4"/>
<!-- Node1 -->
<g id="node1" class="node"><title>Node1</title>
<polygon fill="#bfbfbf" stroke="black" points="0,-0.5 0,-19.5 73,-19.5 73,-0.5 0,-0.5"/>
<text text-anchor="middle" x="36.5" y="-7.5" font-family="Helvetica,sans-Serif" font-size="10.00">printTopLevel</text>
</g>
<!-- Node2 -->
<g id="node2" class="node"><title>Node2</title>
<g id="a_node2"><a xlink:href="classoverview_p_d_f.html#abf0674d88080affc25c472fbd0525896" target="_top" xlink:title="Prints a subject to the PDF document. ">
<polygon fill="white" stroke="red" points="109,-19.5 109,-38.5 166,-38.5 166,-19.5 109,-19.5"/>
<text text-anchor="middle" x="137.5" y="-26.5" font-family="Helvetica,sans-Serif" font-size="10.00">printFach</text>
</a>
</g>
</g>
<!-- Node1&#45;&gt;Node2 -->
<g id="edge1" class="edge"><title>Node1&#45;&gt;Node2</title>
<path fill="none" stroke="midnightblue" d="M73.2413,-16.8594C81.5889,-18.4615 90.5036,-20.1724 98.9281,-21.7892"/>
<polygon fill="midnightblue" stroke="midnightblue" points="98.4096,-25.2535 108.89,-23.7011 99.729,-18.379 98.4096,-25.2535"/>
</g>
<!-- Node3 -->
<g id="node3" class="node"><title>Node3</title>
<g id="a_node3"><a xlink:href="classoverview_p_d_f.html#ad6b57d30526fb658521faddce7595dc4" target="_top" xlink:title="Prints a heading to the PDF document. ">
<polygon fill="white" stroke="red" points="202,-0.5 202,-19.5 273,-19.5 273,-0.5 202,-0.5"/>
<text text-anchor="middle" x="237.5" y="-7.5" font-family="Helvetica,sans-Serif" font-size="10.00">printHeading</text>
</a>
</g>
</g>
<!-- Node1&#45;&gt;Node3 -->
<g id="edge3" class="edge"><title>Node1&#45;&gt;Node3</title>
<path fill="none" stroke="midnightblue" d="M73.0772,-10C106.248,-10 155.856,-10 191.711,-10"/>
<polygon fill="midnightblue" stroke="midnightblue" points="191.897,-13.5001 201.897,-10 191.897,-6.5001 191.897,-13.5001"/>
</g>
<!-- Node2&#45;&gt;Node3 -->
<g id="edge2" class="edge"><title>Node2&#45;&gt;Node3</title>
<path fill="none" stroke="midnightblue" d="M166.059,-23.6569C174.121,-22.0938 183.148,-20.3438 191.979,-18.6316"/>
<polygon fill="midnightblue" stroke="midnightblue" points="192.653,-22.0661 201.804,-16.7267 191.321,-15.1941 192.653,-22.0661"/>
</g>
</g>
</svg>
