<?xml version="1.0" encoding="UTF-8" standalone="no"?>
<!DOCTYPE svg PUBLIC "-//W3C//DTD SVG 1.1//EN"
 "http://www.w3.org/Graphics/SVG/1.1/DTD/svg11.dtd">
<!-- Generated by graphviz version 2.38.0 (20140413.2041)
 -->
<!-- Title: printHeading Pages: 1 -->
<svg width="399pt" height="58pt"
 viewBox="0.00 0.00 399.00 58.48" xmlns="http://www.w3.org/2000/svg" xmlns:xlink="http://www.w3.org/1999/xlink">
<g id="graph0" class="graph" transform="scale(1 1) rotate(0) translate(4 54.4826)">
<title>printHeading</title>
<polygon fill="white" stroke="none" points="-4,4 -4,-54.4826 395,-54.4826 395,4 -4,4"/>
<!-- Node1 -->
<g id="node1" class="node"><title>Node1</title>
<polygon fill="#bfbfbf" stroke="black" points="0,-11.9826 0,-30.9826 71,-30.9826 71,-11.9826 0,-11.9826"/>
<text text-anchor="middle" x="35.5" y="-18.9826" font-family="Helvetica,sans-Serif" font-size="10.00">printHeading</text>
</g>
<!-- Node2 -->
<g id="node2" class="node"><title>Node2</title>
<g id="a_node2"><a xlink:href="classoverview_p_d_f.html#a1871e6880b3bb67d0a49cdcab4cd680d" target="_top" xlink:title="Prints a curriculum object and all its courses to the PDF document. ">
<polygon fill="white" stroke="red" points="309,-30.9826 309,-49.9826 391,-49.9826 391,-30.9826 309,-30.9826"/>
<text text-anchor="middle" x="350" y="-37.9826" font-family="Helvetica,sans-Serif" font-size="10.00">printCurriculum</text>
</a>
</g>
</g>
<!-- Node1&#45;&gt;Node2 -->
<g id="edge1" class="edge"><title>Node1&#45;&gt;Node2</title>
<path fill="none" stroke="midnightblue" d="M74.5926,-33.7091C84.9912,-36.5063 96.3341,-39.0705 107,-40.4826 177.598,-49.829 260.799,-46.7987 308.964,-43.6838"/>
<polygon fill="midnightblue" stroke="midnightblue" points="75.5402,-30.3399 64.965,-30.9859 73.6349,-37.0756 75.5402,-30.3399"/>
</g>
<!-- Node3 -->
<g id="node3" class="node"><title>Node3</title>
<g id="a_node3"><a xlink:href="classoverview_p_d_f.html#abf0674d88080affc25c472fbd0525896" target="_top" xlink:title="Prints a subject to the PDF document. ">
<polygon fill="white" stroke="black" points="107,-11.9826 107,-30.9826 164,-30.9826 164,-11.9826 107,-11.9826"/>
<text text-anchor="middle" x="135.5" y="-18.9826" font-family="Helvetica,sans-Serif" font-size="10.00">printFach</text>
</a>
</g>
</g>
<!-- Node1&#45;&gt;Node3 -->
<g id="edge2" class="edge"><title>Node1&#45;&gt;Node3</title>
<path fill="none" stroke="midnightblue" d="M81.1273,-21.4826C89.8402,-21.4826 98.739,-21.4826 106.71,-21.4826"/>
<polygon fill="midnightblue" stroke="midnightblue" points="81.0512,-17.9827 71.0511,-21.4826 81.0511,-24.9827 81.0512,-17.9827"/>
</g>
<!-- Node4 -->
<g id="node4" class="node"><title>Node4</title>
<g id="a_node4"><a xlink:href="classoverview_p_d_f.html#a23c7451efb8c436590fbad032bc6788b" target="_top" xlink:title="Decides whether to print a structural element or a subject. ">
<polygon fill="white" stroke="black" points="200,-11.9826 200,-30.9826 273,-30.9826 273,-11.9826 200,-11.9826"/>
<text text-anchor="middle" x="236.5" y="-18.9826" font-family="Helvetica,sans-Serif" font-size="10.00">printTopLevel</text>
</a>
</g>
</g>
<!-- Node1&#45;&gt;Node4 -->
<g id="edge5" class="edge"><title>Node1&#45;&gt;Node4</title>
<path fill="none" stroke="midnightblue" d="M74.5926,-9.25611C84.9912,-6.45891 96.3341,-3.89467 107,-2.48261 132.114,0.84226 138.88,0.798087 164,-2.48261 178.264,-4.34552 193.733,-8.2151 206.622,-11.9789"/>
<polygon fill="midnightblue" stroke="midnightblue" points="73.6349,-5.88961 64.965,-11.9794 75.5402,-12.6253 73.6349,-5.88961"/>
</g>
<!-- Node3&#45;&gt;Node4 -->
<g id="edge3" class="edge"><title>Node3&#45;&gt;Node4</title>
<path fill="none" stroke="midnightblue" d="M174.092,-21.4826C182.563,-21.4826 191.528,-21.4826 199.914,-21.4826"/>
<polygon fill="midnightblue" stroke="midnightblue" points="174.077,-17.9827 164.077,-21.4826 174.077,-24.9827 174.077,-17.9827"/>
</g>
<!-- Node4&#45;&gt;Node2 -->
<g id="edge4" class="edge"><title>Node4&#45;&gt;Node2</title>
<path fill="none" stroke="midnightblue" d="M283.192,-29.2686C291.651,-30.7102 300.431,-32.2062 308.715,-33.6179"/>
<polygon fill="midnightblue" stroke="midnightblue" points="283.532,-25.7762 273.086,-27.5466 282.356,-32.6767 283.532,-25.7762"/>
</g>
</g>
</svg>
