<?xml version="1.0" encoding="UTF-8" standalone="no"?>
<!DOCTYPE svg PUBLIC "-//W3C//DTD SVG 1.1//EN"
 "http://www.w3.org/Graphics/SVG/1.1/DTD/svg11.dtd">
<!-- Generated by graphviz version 2.38.0 (20140413.2041)
 -->
<!-- Title: check_return_value Pages: 1 -->
<svg width="203pt" height="66pt"
 viewBox="0.00 0.00 203.00 66.00" xmlns="http://www.w3.org/2000/svg" xmlns:xlink="http://www.w3.org/1999/xlink">
<g id="graph0" class="graph" transform="scale(1 1) rotate(0) translate(4 62)">
<title>check_return_value</title>
<polygon fill="white" stroke="none" points="-4,4 -4,-62 199,-62 199,4 -4,4"/>
<!-- Node1 -->
<g id="node1" class="node"><title>Node1</title>
<polygon fill="#bfbfbf" stroke="black" points="0,-19.5 0,-38.5 100,-38.5 100,-19.5 0,-19.5"/>
<text text-anchor="middle" x="50" y="-26.5" font-family="Helvetica,sans-Serif" font-size="10.00">check_return_value</text>
</g>
<!-- Node2 -->
<g id="node2" class="node"><title>Node2</title>
<g id="a_node2"><a xlink:href="classceus__importer.html#a78572828d11dcdf2a498497d9001d557" target="_top" xlink:title="Connect to CEUS and receive Authtoken. ">
<polygon fill="white" stroke="black" points="140,-38.5 140,-57.5 191,-57.5 191,-38.5 140,-38.5"/>
<text text-anchor="middle" x="165.5" y="-45.5" font-family="Helvetica,sans-Serif" font-size="10.00">connect</text>
</a>
</g>
</g>
<!-- Node1&#45;&gt;Node2 -->
<g id="edge1" class="edge"><title>Node1&#45;&gt;Node2</title>
<path fill="none" stroke="midnightblue" d="M110.195,-38.9092C120.713,-40.6701 131.12,-42.4121 139.965,-43.8928"/>
<polygon fill="midnightblue" stroke="midnightblue" points="110.563,-35.4223 100.123,-37.2232 109.408,-42.3263 110.563,-35.4223"/>
</g>
<!-- Node3 -->
<g id="node3" class="node"><title>Node3</title>
<g id="a_node3"><a xlink:href="classceus__importer.html#a1b7d86575274b687d8e2fa9b29d7f7ba" target="_top" xlink:title="Fetches a single course from CEUS. ">
<polygon fill="white" stroke="black" points="136,-0.5 136,-19.5 195,-19.5 195,-0.5 136,-0.5"/>
<text text-anchor="middle" x="165.5" y="-7.5" font-family="Helvetica,sans-Serif" font-size="10.00">get_detail</text>
</a>
</g>
</g>
<!-- Node1&#45;&gt;Node3 -->
<g id="edge2" class="edge"><title>Node1&#45;&gt;Node3</title>
<path fill="none" stroke="midnightblue" d="M110.209,-19.0884C119.154,-17.591 128.017,-16.1073 135.907,-14.7865"/>
<polygon fill="midnightblue" stroke="midnightblue" points="109.408,-15.6737 100.123,-20.7768 110.563,-22.5777 109.408,-15.6737"/>
</g>
</g>
</svg>
