<?xml version="1.0" encoding="UTF-8" standalone="no"?>
<!DOCTYPE svg PUBLIC "-//W3C//DTD SVG 1.1//EN"
 "http://www.w3.org/Graphics/SVG/1.1/DTD/svg11.dtd">
<!-- Generated by graphviz version 2.38.0 (20140413.2041)
 -->
<!-- Title: expand_all Pages: 1 -->
<svg width="271pt" height="47pt"
 viewBox="0.00 0.00 271.00 47.00" xmlns="http://www.w3.org/2000/svg" xmlns:xlink="http://www.w3.org/1999/xlink">
<g id="graph0" class="graph" transform="scale(1 1) rotate(0) translate(4 43)">
<title>expand_all</title>
<polygon fill="white" stroke="none" points="-4,4 -4,-43 267,-43 267,4 -4,4"/>
<!-- Node1 -->
<g id="node1" class="node"><title>Node1</title>
<polygon fill="#bfbfbf" stroke="black" points="0,-0.5 0,-19.5 63,-19.5 63,-0.5 0,-0.5"/>
<text text-anchor="middle" x="31.5" y="-7.5" font-family="Helvetica,sans-Serif" font-size="10.00">expand_all</text>
</g>
<!-- Node2 -->
<g id="node2" class="node"><title>Node2</title>
<g id="a_node2"><a xlink:href="graph_8js.html#ac6ee0322be8a49fdf390d82d6bf998cf" target="_top" xlink:title="Toggles the expansion/reduction of a course &lt;div&gt; ">
<polygon fill="white" stroke="black" points="99,-19.5 99,-38.5 182,-38.5 182,-19.5 99,-19.5"/>
<text text-anchor="middle" x="140.5" y="-26.5" font-family="Helvetica,sans-Serif" font-size="10.00">expand_reduce</text>
</a>
</g>
</g>
<!-- Node1&#45;&gt;Node2 -->
<g id="edge1" class="edge"><title>Node1&#45;&gt;Node2</title>
<path fill="none" stroke="midnightblue" d="M63.1619,-15.4446C71.2382,-16.8788 80.1694,-18.4647 88.9917,-20.0312"/>
<polygon fill="midnightblue" stroke="midnightblue" points="88.3968,-23.4803 98.8548,-21.7826 89.6207,-16.5881 88.3968,-23.4803"/>
</g>
<!-- Node3 -->
<g id="node3" class="node"><title>Node3</title>
<g id="a_node3"><a xlink:href="graph_8js.html#a5c1c7770c4c44dde3dcba63aa2a48056" target="_top" xlink:title="Gets a list of all courses. ">
<polygon fill="white" stroke="red" points="218,-19.5 218,-38.5 263,-38.5 263,-19.5 218,-19.5"/>
<text text-anchor="middle" x="240.5" y="-26.5" font-family="Helvetica,sans-Serif" font-size="10.00">jQuery</text>
</a>
</g>
</g>
<!-- Node1&#45;&gt;Node3 -->
<g id="edge4" class="edge"><title>Node1&#45;&gt;Node3</title>
<path fill="none" stroke="midnightblue" d="M63.0768,-7.17573C93.453,-5.03083 141.256,-3.44275 182,-10 190.729,-11.4048 199.928,-13.9369 208.346,-16.7041"/>
<polygon fill="midnightblue" stroke="midnightblue" points="207.199,-20.011 217.794,-20.0071 209.509,-13.4031 207.199,-20.011"/>
</g>
<!-- Node2&#45;&gt;Node3 -->
<g id="edge2" class="edge"><title>Node2&#45;&gt;Node3</title>
<path fill="none" stroke="midnightblue" d="M182.209,-22.3366C190.693,-22.1578 199.517,-22.2558 207.626,-22.6307"/>
<polygon fill="midnightblue" stroke="midnightblue" points="207.581,-26.1349 217.785,-23.2829 208.03,-19.1493 207.581,-26.1349"/>
</g>
<!-- Node3&#45;&gt;Node2 -->
<g id="edge3" class="edge"><title>Node3&#45;&gt;Node2</title>
<path fill="none" stroke="midnightblue" d="M217.785,-34.7171C210.179,-35.3623 201.286,-35.7052 192.312,-35.7459"/>
<polygon fill="midnightblue" stroke="midnightblue" points="192.238,-32.2453 182.209,-35.6634 192.18,-39.245 192.238,-32.2453"/>
</g>
</g>
</svg>
