<?xml version="1.0" encoding="UTF-8" standalone="no"?>
<!DOCTYPE svg PUBLIC "-//W3C//DTD SVG 1.1//EN"
 "http://www.w3.org/Graphics/SVG/1.1/DTD/svg11.dtd">
<!-- Generated by graphviz version 2.38.0 (20140413.2041)
 -->
<!-- Title: jQuery Pages: 1 -->
<svg width="345pt" height="274pt"
 viewBox="0.00 0.00 345.00 274.00" xmlns="http://www.w3.org/2000/svg" xmlns:xlink="http://www.w3.org/1999/xlink">
<g id="graph0" class="graph" transform="scale(1 1) rotate(0) translate(4 270)">
<title>jQuery</title>
<polygon fill="white" stroke="none" points="-4,4 -4,-270 341,-270 341,4 -4,4"/>
<!-- Node1 -->
<g id="node1" class="node"><title>Node1</title>
<polygon fill="#bfbfbf" stroke="black" points="0,-114.5 0,-133.5 45,-133.5 45,-114.5 0,-114.5"/>
<text text-anchor="middle" x="22.5" y="-121.5" font-family="Helvetica,sans-Serif" font-size="10.00">jQuery</text>
</g>
<!-- Node2 -->
<g id="node2" class="node"><title>Node2</title>
<g id="a_node2"><a xlink:href="graph_8js.html#a0f059d7a7d52e5d870756301132c5d46" target="_top" xlink:title="Adds missing stylesheets and the jQuery effect library. ">
<polygon fill="white" stroke="black" points="110,-246.5 110,-265.5 189,-265.5 189,-246.5 110,-246.5"/>
<text text-anchor="middle" x="149.5" y="-253.5" font-family="Helvetica,sans-Serif" font-size="10.00">addResources</text>
</a>
</g>
</g>
<!-- Node1&#45;&gt;Node2 -->
<g id="edge1" class="edge"><title>Node1&#45;&gt;Node2</title>
<path fill="none" stroke="midnightblue" d="M27.0515,-133.69C33.5112,-154.658 49.5219,-202.166 81,-228 90.7782,-236.025 103.739,-240.666 115.688,-243.949"/>
<polygon fill="midnightblue" stroke="midnightblue" points="114.839,-247.345 125.395,-246.432 116.574,-240.563 114.839,-247.345"/>
</g>
<!-- Node3 -->
<g id="node3" class="node"><title>Node3</title>
<g id="a_node3"><a xlink:href="graph_8js.html#aa00b90455b343892a205e45326155d0d" target="_top" xlink:title="Creates the JSON request URL. ">
<polygon fill="white" stroke="black" points="103.5,-208.5 103.5,-227.5 195.5,-227.5 195.5,-208.5 103.5,-208.5"/>
<text text-anchor="middle" x="149.5" y="-215.5" font-family="Helvetica,sans-Serif" font-size="10.00">buildRequestURL</text>
</a>
</g>
</g>
<!-- Node1&#45;&gt;Node3 -->
<g id="edge3" class="edge"><title>Node1&#45;&gt;Node3</title>
<path fill="none" stroke="midnightblue" d="M28.9673,-133.549C37.9757,-148.481 57.3204,-177.366 81,-194 87.0174,-198.227 93.8558,-201.782 100.815,-204.749"/>
<polygon fill="midnightblue" stroke="midnightblue" points="99.7252,-208.08 110.314,-208.439 102.26,-201.556 99.7252,-208.08"/>
</g>
<!-- Node4 -->
<g id="node4" class="node"><title>Node4</title>
<g id="a_node4"><a xlink:href="graph_8js.html#ac6ee0322be8a49fdf390d82d6bf998cf" target="_top" xlink:title="Toggles the expansion/reduction of a course &lt;div&gt; ">
<polygon fill="white" stroke="black" points="254,-161.5 254,-180.5 337,-180.5 337,-161.5 254,-161.5"/>
<text text-anchor="middle" x="295.5" y="-168.5" font-family="Helvetica,sans-Serif" font-size="10.00">expand_reduce</text>
</a>
</g>
</g>
<!-- Node1&#45;&gt;Node4 -->
<g id="edge4" class="edge"><title>Node1&#45;&gt;Node4</title>
<path fill="none" stroke="midnightblue" d="M45.0693,-124.082C55.7446,-126.982 68.9061,-131.235 81,-134 136.499,-146.689 201.523,-154.19 245.098,-160.08"/>
<polygon fill="midnightblue" stroke="midnightblue" points="244.764,-163.567 255.148,-161.467 245.721,-156.632 244.764,-163.567"/>
</g>
<!-- Node5 -->
<g id="node5" class="node"><title>Node5</title>
<g id="a_node5"><a xlink:href="graph_8js.html#a0dd09e25cba850e08e98664cca21b625" target="_top" xlink:title="Expands the curriculum tree down to an element. ">
<polygon fill="white" stroke="red" points="81,-114.5 81,-133.5 218,-133.5 218,-114.5 81,-114.5"/>
<text text-anchor="middle" x="149.5" y="-121.5" font-family="Helvetica,sans-Serif" font-size="10.00">expandAndScrollToElement</text>
</a>
</g>
</g>
<!-- Node1&#45;&gt;Node5 -->
<g id="edge6" class="edge"><title>Node1&#45;&gt;Node5</title>
<path fill="none" stroke="midnightblue" d="M45.2733,-118.733C52.6703,-118.093 61.4154,-117.66 70.6361,-117.435"/>
<polygon fill="midnightblue" stroke="midnightblue" points="70.8447,-120.932 80.7869,-117.271 70.7317,-113.933 70.8447,-120.932"/>
</g>
<!-- Node6 -->
<g id="node6" class="node"><title>Node6</title>
<g id="a_node6"><a xlink:href="graph_8js.html#a7c5be5387a50b7e1424c667fdcb2bf3f" target="_top" xlink:title="Extracts curricula from JSON. ">
<polygon fill="white" stroke="red" points="115.5,-76.5 115.5,-95.5 183.5,-95.5 183.5,-76.5 115.5,-76.5"/>
<text text-anchor="middle" x="149.5" y="-83.5" font-family="Helvetica,sans-Serif" font-size="10.00">getCurricula</text>
</a>
</g>
</g>
<!-- Node1&#45;&gt;Node6 -->
<g id="edge9" class="edge"><title>Node1&#45;&gt;Node6</title>
<path fill="none" stroke="midnightblue" d="M32.8208,-114.413C44.1602,-107.89 63.9083,-101.226 81,-96 88.9457,-93.5703 97.4523,-91.0857 105.656,-88.9186"/>
<polygon fill="midnightblue" stroke="midnightblue" points="106.608,-92.2882 115.455,-86.4579 104.903,-85.4991 106.608,-92.2882"/>
</g>
<!-- Node7 -->
<g id="node7" class="node"><title>Node7</title>
<g id="a_node7"><a xlink:href="graph_8js.html#a33066162480e6f749f6688423b7723ad" target="_top" xlink:title="Shows or hides recommended courses. ">
<polygon fill="white" stroke="black" points="107,-38.5 107,-57.5 192,-57.5 192,-38.5 107,-38.5"/>
<text text-anchor="middle" x="149.5" y="-45.5" font-family="Helvetica,sans-Serif" font-size="10.00">showEmpfohlen</text>
</a>
</g>
</g>
<!-- Node1&#45;&gt;Node7 -->
<g id="edge11" class="edge"><title>Node1&#45;&gt;Node7</title>
<path fill="none" stroke="midnightblue" d="M27.0639,-114.334C35.2786,-98.9834 56.7117,-72.1562 81,-58 86.0536,-55.0546 91.5879,-52.5455 97.2445,-50.4722"/>
<polygon fill="midnightblue" stroke="midnightblue" points="98.3678,-53.7876 106.816,-47.3943 96.2249,-47.1236 98.3678,-53.7876"/>
</g>
<!-- Node8 -->
<g id="node8" class="node"><title>Node8</title>
<g id="a_node8"><a xlink:href="graph_8js.html#a018753126c02ed98b7021f2ceb0518b2" target="_top" xlink:title="Shows or hides required courses. ">
<polygon fill="white" stroke="black" points="92,-0.5 92,-19.5 207,-19.5 207,-0.5 92,-0.5"/>
<text text-anchor="middle" x="149.5" y="-7.5" font-family="Helvetica,sans-Serif" font-size="10.00">showVoraussetzungen</text>
</a>
</g>
</g>
<!-- Node1&#45;&gt;Node8 -->
<g id="edge13" class="edge"><title>Node1&#45;&gt;Node8</title>
<path fill="none" stroke="midnightblue" d="M25.2816,-114.243C30.7289,-92.7371 48.7811,-44.5158 81,-20 81.6176,-19.53 82.2464,-19.0717 82.8853,-18.6248"/>
<polygon fill="midnightblue" stroke="midnightblue" points="84.8405,-21.5354 91.6871,-13.45 81.2927,-15.5011 84.8405,-21.5354"/>
</g>
<!-- Node2&#45;&gt;Node1 -->
<g id="edge2" class="edge"><title>Node2&#45;&gt;Node1</title>
<path fill="none" stroke="midnightblue" d="M109.793,-259.523C99.6056,-257.066 89.1873,-252.719 81,-246 49.1464,-219.858 33.1313,-171.521 26.8243,-143.911"/>
<polygon fill="midnightblue" stroke="midnightblue" points="30.1875,-142.887 24.7543,-133.792 23.3295,-144.29 30.1875,-142.887"/>
</g>
<!-- Node4&#45;&gt;Node1 -->
<g id="edge5" class="edge"><title>Node4&#45;&gt;Node1</title>
<path fill="none" stroke="midnightblue" d="M253.961,-174.653C210.715,-173.219 140.402,-165.581 81,-152 67.207,-148.846 52.0254,-143.758 40.7269,-138.332"/>
<polygon fill="midnightblue" stroke="midnightblue" points="42.3826,-135.249 31.93,-133.518 39.0221,-141.389 42.3826,-135.249"/>
</g>
<!-- Node5&#45;&gt;Node1 -->
<g id="edge8" class="edge"><title>Node5&#45;&gt;Node1</title>
<path fill="none" stroke="midnightblue" d="M80.7869,-130.729C71.9395,-130.658 63.2324,-130.405 55.3814,-129.971"/>
<polygon fill="midnightblue" stroke="midnightblue" points="55.4925,-126.471 45.2733,-129.267 55.0058,-133.454 55.4925,-126.471"/>
</g>
<!-- Node5&#45;&gt;Node4 -->
<g id="edge7" class="edge"><title>Node5&#45;&gt;Node4</title>
<path fill="none" stroke="midnightblue" d="M179.641,-133.511C201.357,-140.599 231.253,-150.357 255.1,-158.14"/>
<polygon fill="midnightblue" stroke="midnightblue" points="254.316,-161.566 264.909,-161.342 256.488,-154.912 254.316,-161.566"/>
</g>
<!-- Node6&#45;&gt;Node1 -->
<g id="edge10" class="edge"><title>Node6&#45;&gt;Node1</title>
<path fill="none" stroke="midnightblue" d="M136.989,-95.5281C123.516,-101.706 100.559,-108.019 81,-114 72.5657,-116.579 63.4845,-119.508 55.0861,-121.964"/>
<polygon fill="midnightblue" stroke="midnightblue" points="53.9803,-118.639 45.27,-124.67 55.8405,-125.387 53.9803,-118.639"/>
</g>
<!-- Node7&#45;&gt;Node1 -->
<g id="edge12" class="edge"><title>Node7&#45;&gt;Node1</title>
<path fill="none" stroke="midnightblue" d="M131.48,-57.5348C117.24,-61.8618 96.777,-66.8045 81,-76 67.0646,-84.1221 54.0691,-96.4154 43.9708,-106.698"/>
<polygon fill="midnightblue" stroke="midnightblue" points="41.2808,-104.445 36.8457,-114.067 46.3131,-109.311 41.2808,-104.445"/>
</g>
<!-- Node8&#45;&gt;Node1 -->
<g id="edge14" class="edge"><title>Node8&#45;&gt;Node1</title>
<path fill="none" stroke="midnightblue" d="M126.908,-19.5734C112.671,-23.1691 94.273,-27.9004 81,-38 57.875,-55.5961 42.0481,-85.4043 32.9419,-105.107"/>
<polygon fill="midnightblue" stroke="midnightblue" points="29.6858,-103.815 28.7895,-114.372 36.0735,-106.678 29.6858,-103.815"/>
</g>
</g>
</svg>
