<?xml version="1.0" encoding="UTF-8" standalone="no"?>
<!DOCTYPE svg PUBLIC "-//W3C//DTD SVG 1.1//EN"
 "http://www.w3.org/Graphics/SVG/1.1/DTD/svg11.dtd">
<!-- Generated by graphviz version 2.38.0 (20140413.2041)
 -->
<!-- Title: expand_reduce Pages: 1 -->
<svg width="172pt" height="28pt"
 viewBox="0.00 0.00 172.00 28.00" xmlns="http://www.w3.org/2000/svg" xmlns:xlink="http://www.w3.org/1999/xlink">
<g id="graph0" class="graph" transform="scale(1 1) rotate(0) translate(4 24)">
<title>expand_reduce</title>
<polygon fill="white" stroke="none" points="-4,4 -4,-24 168,-24 168,4 -4,4"/>
<!-- Node1 -->
<g id="node1" class="node"><title>Node1</title>
<polygon fill="#bfbfbf" stroke="black" points="0,-0.5 0,-19.5 83,-19.5 83,-0.5 0,-0.5"/>
<text text-anchor="middle" x="41.5" y="-7.5" font-family="Helvetica,sans-Serif" font-size="10.00">expand_reduce</text>
</g>
<!-- Node2 -->
<g id="node2" class="node"><title>Node2</title>
<g id="a_node2"><a xlink:href="graph_8js.html#a5c1c7770c4c44dde3dcba63aa2a48056" target="_top" xlink:title="Gets a list of all courses. ">
<polygon fill="white" stroke="red" points="119,-0.5 119,-19.5 164,-19.5 164,-0.5 119,-0.5"/>
<text text-anchor="middle" x="141.5" y="-7.5" font-family="Helvetica,sans-Serif" font-size="10.00">jQuery</text>
</a>
</g>
</g>
<!-- Node1&#45;&gt;Node2 -->
<g id="edge1" class="edge"><title>Node1&#45;&gt;Node2</title>
<path fill="none" stroke="midnightblue" d="M83.2094,-3.33662C91.6926,-3.15782 100.517,-3.25583 108.626,-3.63066"/>
<polygon fill="midnightblue" stroke="midnightblue" points="108.581,-7.13488 118.785,-4.28287 109.03,-0.149261 108.581,-7.13488"/>
</g>
<!-- Node2&#45;&gt;Node1 -->
<g id="edge2" class="edge"><title>Node2&#45;&gt;Node1</title>
<path fill="none" stroke="midnightblue" d="M118.785,-15.7171C111.179,-16.3623 102.286,-16.7052 93.3118,-16.7459"/>
<polygon fill="midnightblue" stroke="midnightblue" points="93.2377,-13.2453 83.2094,-16.6634 93.1805,-20.245 93.2377,-13.2453"/>
</g>
</g>
</svg>
