<?xml version="1.0" encoding="UTF-8" standalone="no"?>
<!DOCTYPE svg PUBLIC "-//W3C//DTD SVG 1.1//EN"
 "http://www.w3.org/Graphics/SVG/1.1/DTD/svg11.dtd">
<!-- Generated by graphviz version 2.38.0 (20140413.2041)
 -->
<!-- Title: createTds Pages: 1 -->
<svg width="187pt" height="66pt"
 viewBox="0.00 0.00 187.00 66.00" xmlns="http://www.w3.org/2000/svg" xmlns:xlink="http://www.w3.org/1999/xlink">
<g id="graph0" class="graph" transform="scale(1 1) rotate(0) translate(4 62)">
<title>createTds</title>
<polygon fill="white" stroke="none" points="-4,4 -4,-62 183,-62 183,4 -4,4"/>
<!-- Node1 -->
<g id="node1" class="node"><title>Node1</title>
<polygon fill="#bfbfbf" stroke="black" points="0,-19.5 0,-38.5 59,-38.5 59,-19.5 0,-19.5"/>
<text text-anchor="middle" x="29.5" y="-26.5" font-family="Helvetica,sans-Serif" font-size="10.00">createTds</text>
</g>
<!-- Node2 -->
<g id="node2" class="node"><title>Node2</title>
<g id="a_node2"><a xlink:href="graph_8js.html#a503fd3f116247c97a552915af0c54b90" target="_top" xlink:title="Fetches course data for missing courses. ">
<polygon fill="white" stroke="black" points="95,-38.5 95,-57.5 179,-57.5 179,-38.5 95,-38.5"/>
<text text-anchor="middle" x="137" y="-45.5" font-family="Helvetica,sans-Serif" font-size="10.00">fillMissingDetail</text>
</a>
</g>
</g>
<!-- Node1&#45;&gt;Node2 -->
<g id="edge1" class="edge"><title>Node1&#45;&gt;Node2</title>
<path fill="none" stroke="midnightblue" d="M59.0498,-34.1417C67.0306,-35.579 75.955,-37.1862 84.8201,-38.7828"/>
<polygon fill="midnightblue" stroke="midnightblue" points="84.2885,-42.2433 94.7506,-40.5712 85.5293,-35.3541 84.2885,-42.2433"/>
</g>
<!-- Node3 -->
<g id="node3" class="node"><title>Node3</title>
<g id="a_node3"><a xlink:href="graph_8js.html#a5c1c7770c4c44dde3dcba63aa2a48056" target="_top" xlink:title="Gets a list of all courses. ">
<polygon fill="white" stroke="red" points="114.5,-0.5 114.5,-19.5 159.5,-19.5 159.5,-0.5 114.5,-0.5"/>
<text text-anchor="middle" x="137" y="-7.5" font-family="Helvetica,sans-Serif" font-size="10.00">jQuery</text>
</a>
</g>
</g>
<!-- Node1&#45;&gt;Node3 -->
<g id="edge2" class="edge"><title>Node1&#45;&gt;Node3</title>
<path fill="none" stroke="midnightblue" d="M59.0498,-23.8583C73.0939,-21.3291 90.0599,-18.2736 104.484,-15.676"/>
<polygon fill="midnightblue" stroke="midnightblue" points="105.237,-19.0966 114.459,-13.8795 103.997,-12.2074 105.237,-19.0966"/>
</g>
</g>
</svg>
