<?xml version="1.0" encoding="UTF-8" standalone="no"?>
<!DOCTYPE svg PUBLIC "-//W3C//DTD SVG 1.1//EN"
 "http://www.w3.org/Graphics/SVG/1.1/DTD/svg11.dtd">
<!-- Generated by graphviz version 2.38.0 (20140413.2041)
 -->
<!-- Title: expandAndScrollToElement Pages: 1 -->
<svg width="226pt" height="28pt"
 viewBox="0.00 0.00 226.00 28.00" xmlns="http://www.w3.org/2000/svg" xmlns:xlink="http://www.w3.org/1999/xlink">
<g id="graph0" class="graph" transform="scale(1 1) rotate(0) translate(4 24)">
<title>expandAndScrollToElement</title>
<polygon fill="white" stroke="none" points="-4,4 -4,-24 222,-24 222,4 -4,4"/>
<!-- Node1 -->
<g id="node1" class="node"><title>Node1</title>
<polygon fill="#bfbfbf" stroke="black" points="0,-0.5 0,-19.5 137,-19.5 137,-0.5 0,-0.5"/>
<text text-anchor="middle" x="68.5" y="-7.5" font-family="Helvetica,sans-Serif" font-size="10.00">expandAndScrollToElement</text>
</g>
<!-- Node2 -->
<g id="node2" class="node"><title>Node2</title>
<g id="a_node2"><a xlink:href="graph_8js.html#a5c1c7770c4c44dde3dcba63aa2a48056" target="_top" xlink:title="Gets a list of all courses. ">
<polygon fill="white" stroke="red" points="173,-0.5 173,-19.5 218,-19.5 218,-0.5 173,-0.5"/>
<text text-anchor="middle" x="195.5" y="-7.5" font-family="Helvetica,sans-Serif" font-size="10.00">jQuery</text>
</a>
</g>
</g>
<!-- Node1&#45;&gt;Node2 -->
<g id="edge1" class="edge"><title>Node1&#45;&gt;Node2</title>
<path fill="none" stroke="midnightblue" d="M147.376,-3.43494C156.69,-3.66318 165.518,-4.10271 172.961,-4.7535"/>
<polygon fill="midnightblue" stroke="midnightblue" points="147.177,0.0686212 137.122,-3.27019 147.064,-6.93048 147.177,0.0686212"/>
</g>
<!-- Node2&#45;&gt;Node1 -->
<g id="edge2" class="edge"><title>Node2&#45;&gt;Node1</title>
<path fill="none" stroke="midnightblue" d="M162.776,-15.9625C154.857,-16.4035 146.06,-16.6592 137.122,-16.7298"/>
<polygon fill="midnightblue" stroke="midnightblue" points="163.231,-19.4393 172.961,-15.2465 162.74,-12.4565 163.231,-19.4393"/>
</g>
</g>
</svg>
