<?xml version="1.0" encoding="UTF-8" standalone="no"?>
<!DOCTYPE svg PUBLIC "-//W3C//DTD SVG 1.1//EN"
 "http://www.w3.org/Graphics/SVG/1.1/DTD/svg11.dtd">
<!-- Generated by graphviz version 2.38.0 (20140413.2041)
 -->
<!-- Title: getCurricula Pages: 1 -->
<svg width="244pt" height="104pt"
 viewBox="0.00 0.00 244.00 104.00" xmlns="http://www.w3.org/2000/svg" xmlns:xlink="http://www.w3.org/1999/xlink">
<g id="graph0" class="graph" transform="scale(1 1) rotate(0) translate(4 100)">
<title>getCurricula</title>
<polygon fill="white" stroke="none" points="-4,4 -4,-100 240,-100 240,4 -4,4"/>
<!-- Node1 -->
<g id="node1" class="node"><title>Node1</title>
<polygon fill="#bfbfbf" stroke="black" points="0,-57.5 0,-76.5 68,-76.5 68,-57.5 0,-57.5"/>
<text text-anchor="middle" x="34" y="-64.5" font-family="Helvetica,sans-Serif" font-size="10.00">getCurricula</text>
</g>
<!-- Node2 -->
<g id="node2" class="node"><title>Node2</title>
<g id="a_node2"><a xlink:href="graph_8js.html#a5c1c7770c4c44dde3dcba63aa2a48056" target="_top" xlink:title="Gets a list of all courses. ">
<polygon fill="white" stroke="red" points="147.5,-76.5 147.5,-95.5 192.5,-95.5 192.5,-76.5 147.5,-76.5"/>
<text text-anchor="middle" x="170" y="-83.5" font-family="Helvetica,sans-Serif" font-size="10.00">jQuery</text>
</a>
</g>
</g>
<!-- Node1&#45;&gt;Node2 -->
<g id="edge1" class="edge"><title>Node1&#45;&gt;Node2</title>
<path fill="none" stroke="midnightblue" d="M78.3361,-66.7837C101.317,-69.2558 128.56,-73.5245 147.142,-77.7574"/>
<polygon fill="midnightblue" stroke="midnightblue" points="78.4178,-63.275 68.1236,-65.7809 77.7337,-70.2415 78.4178,-63.275"/>
</g>
<!-- Node3 -->
<g id="node3" class="node"><title>Node3</title>
<g id="a_node3"><a xlink:href="group___drupal2_p_d_f.html#ga3649714a54a489d8c0096116fd9cb367" target="_top" xlink:title="Menu callback for generating PDF documents (&quot;admin/settings/stukowin/pdf&quot;) ">
<polygon fill="white" stroke="black" points="119,-38.5 119,-57.5 221,-57.5 221,-38.5 119,-38.5"/>
<text text-anchor="middle" x="170" y="-45.5" font-family="Helvetica,sans-Serif" font-size="10.00">stukowin_pdf_menu</text>
</a>
</g>
</g>
<!-- Node1&#45;&gt;Node3 -->
<g id="edge3" class="edge"><title>Node1&#45;&gt;Node3</title>
<path fill="none" stroke="midnightblue" d="M78.1663,-60.8794C91.1085,-59.0443 105.415,-57.0158 118.771,-55.122"/>
<polygon fill="midnightblue" stroke="midnightblue" points="77.5332,-57.4341 68.1236,-62.3034 78.516,-64.3648 77.5332,-57.4341"/>
</g>
<!-- Node4 -->
<g id="node4" class="node"><title>Node4</title>
<g id="a_node4"><a xlink:href="group___drupal2_i_t_s_v.html#gab706d935ca9d9998c5e25a9ad6486d6a" target="_top" xlink:title="Menu callback for creating a new ITSV or specialisation vocabulary. ">
<polygon fill="white" stroke="black" points="104,-0.5 104,-19.5 236,-19.5 236,-0.5 104,-0.5"/>
<text text-anchor="middle" x="170" y="-7.5" font-family="Helvetica,sans-Serif" font-size="10.00">stukowin_taxonomy_menu</text>
</a>
</g>
</g>
<!-- Node1&#45;&gt;Node4 -->
<g id="edge4" class="edge"><title>Node1&#45;&gt;Node4</title>
<path fill="none" stroke="midnightblue" d="M58.9057,-52.1365C71.9001,-44.4974 88.4523,-35.4618 104,-29 112.577,-25.4354 122.05,-22.2615 131.05,-19.5765"/>
<polygon fill="midnightblue" stroke="midnightblue" points="56.9132,-49.2502 50.1378,-57.3954 60.5138,-55.2533 56.9132,-49.2502"/>
</g>
<!-- Node2&#45;&gt;Node1 -->
<g id="edge2" class="edge"><title>Node2&#45;&gt;Node1</title>
<path fill="none" stroke="midnightblue" d="M137.312,-87.3429C114.661,-85.4262 84.4714,-81.0645 62.7649,-76.5295"/>
<polygon fill="midnightblue" stroke="midnightblue" points="137.22,-90.8451 147.443,-88.0606 137.715,-83.8626 137.22,-90.8451"/>
</g>
</g>
</svg>
