<?xml version="1.0" encoding="UTF-8" standalone="no"?>
<!DOCTYPE svg PUBLIC "-//W3C//DTD SVG 1.1//EN"
 "http://www.w3.org/Graphics/SVG/1.1/DTD/svg11.dtd">
<!-- Generated by graphviz version 2.38.0 (20140413.2041)
 -->
<!-- Title: fill_crclm Pages: 1 -->
<svg width="242pt" height="142pt"
 viewBox="0.00 0.00 242.00 142.00" xmlns="http://www.w3.org/2000/svg" xmlns:xlink="http://www.w3.org/1999/xlink">
<g id="graph0" class="graph" transform="scale(1 1) rotate(0) translate(4 138)">
<title>fill_crclm</title>
<polygon fill="white" stroke="none" points="-4,4 -4,-138 238,-138 238,4 -4,4"/>
<!-- Node1 -->
<g id="node1" class="node"><title>Node1</title>
<polygon fill="#bfbfbf" stroke="black" points="0,-57.5 0,-76.5 55,-76.5 55,-57.5 0,-57.5"/>
<text text-anchor="middle" x="27.5" y="-64.5" font-family="Helvetica,sans-Serif" font-size="10.00">fill_crclm</text>
</g>
<!-- Node2 -->
<g id="node2" class="node"><title>Node2</title>
<g id="a_node2"><a xlink:href="graph_8js.html#a0c9811785ee3747b64633dd5a6d9490d" target="_top" xlink:title="Empties main &lt;div&gt; ">
<polygon fill="white" stroke="black" points="97,-114.5 97,-133.5 147,-133.5 147,-114.5 97,-114.5"/>
<text text-anchor="middle" x="122" y="-121.5" font-family="Helvetica,sans-Serif" font-size="10.00">clearDiv</text>
</a>
</g>
</g>
<!-- Node1&#45;&gt;Node2 -->
<g id="edge1" class="edge"><title>Node1&#45;&gt;Node2</title>
<path fill="none" stroke="midnightblue" d="M44.1914,-76.6693C58.6302,-85.5667 80.2614,-98.8962 96.8926,-109.145"/>
<polygon fill="midnightblue" stroke="midnightblue" points="95.1908,-112.207 105.54,-114.474 98.8631,-106.248 95.1908,-112.207"/>
</g>
<!-- Node3 -->
<g id="node3" class="node"><title>Node3</title>
<g id="a_node3"><a xlink:href="graph_8js.html#a5c1c7770c4c44dde3dcba63aa2a48056" target="_top" xlink:title="Gets a list of all courses. ">
<polygon fill="white" stroke="red" points="189,-57.5 189,-76.5 234,-76.5 234,-57.5 189,-57.5"/>
<text text-anchor="middle" x="211.5" y="-64.5" font-family="Helvetica,sans-Serif" font-size="10.00">jQuery</text>
</a>
</g>
</g>
<!-- Node1&#45;&gt;Node3 -->
<g id="edge5" class="edge"><title>Node1&#45;&gt;Node3</title>
<path fill="none" stroke="midnightblue" d="M55.3547,-67C88.2415,-67 143.87,-67 178.816,-67"/>
<polygon fill="midnightblue" stroke="midnightblue" points="178.95,-70.5001 188.95,-67 178.95,-63.5001 178.95,-70.5001"/>
</g>
<!-- Node4 -->
<g id="node4" class="node"><title>Node4</title>
<g id="a_node4"><a xlink:href="graph_8js.html#ac307c11e1cc6808c1ef6ae5a5e22d2bd" target="_top" xlink:title="Creates the &lt;div&gt;s for all courses recursively. ">
<polygon fill="white" stroke="red" points="91,-38.5 91,-57.5 153,-57.5 153,-38.5 91,-38.5"/>
<text text-anchor="middle" x="122" y="-45.5" font-family="Helvetica,sans-Serif" font-size="10.00">createDivs</text>
</a>
</g>
</g>
<!-- Node1&#45;&gt;Node4 -->
<g id="edge3" class="edge"><title>Node1&#45;&gt;Node4</title>
<path fill="none" stroke="midnightblue" d="M55.2548,-61.5044C63.2317,-59.8659 72.1556,-58.0329 80.7934,-56.2587"/>
<polygon fill="midnightblue" stroke="midnightblue" points="81.6368,-59.6586 90.728,-54.218 80.2283,-52.8017 81.6368,-59.6586"/>
</g>
<!-- Node5 -->
<g id="node5" class="node"><title>Node5</title>
<g id="a_node5"><a xlink:href="graph_8js.html#a55ac568a54e097c62f289c73ef0d8880" target="_top" xlink:title="Reduces all divs. ">
<polygon fill="white" stroke="red" points="91.5,-0.5 91.5,-19.5 152.5,-19.5 152.5,-0.5 91.5,-0.5"/>
<text text-anchor="middle" x="122" y="-7.5" font-family="Helvetica,sans-Serif" font-size="10.00">reduce_all</text>
</a>
</g>
</g>
<!-- Node1&#45;&gt;Node5 -->
<g id="edge6" class="edge"><title>Node1&#45;&gt;Node5</title>
<path fill="none" stroke="midnightblue" d="M44.1914,-57.3307C58.6302,-48.4333 80.2614,-35.1038 96.8926,-24.8554"/>
<polygon fill="midnightblue" stroke="midnightblue" points="98.8631,-27.7523 105.54,-19.5265 95.1908,-21.7929 98.8631,-27.7523"/>
</g>
<!-- Node2&#45;&gt;Node3 -->
<g id="edge2" class="edge"><title>Node2&#45;&gt;Node3</title>
<path fill="none" stroke="midnightblue" d="M137.843,-114.331C151.375,-105.516 171.585,-92.3503 187.257,-82.1408"/>
<polygon fill="midnightblue" stroke="midnightblue" points="189.407,-84.9175 195.876,-76.5265 185.587,-79.0522 189.407,-84.9175"/>
</g>
<!-- Node4&#45;&gt;Node3 -->
<g id="edge4" class="edge"><title>Node4&#45;&gt;Node3</title>
<path fill="none" stroke="midnightblue" d="M153.113,-54.5387C161.477,-56.355 170.581,-58.3318 179.021,-60.1646"/>
<polygon fill="midnightblue" stroke="midnightblue" points="178.379,-63.6066 188.894,-62.3083 179.864,-56.766 178.379,-63.6066"/>
</g>
<!-- Node5&#45;&gt;Node3 -->
<g id="edge7" class="edge"><title>Node5&#45;&gt;Node3</title>
<path fill="none" stroke="midnightblue" d="M138.298,-19.6087C143.024,-22.5985 148.238,-25.9189 153,-29 164.344,-36.34 176.868,-44.5983 187.324,-51.5366"/>
<polygon fill="midnightblue" stroke="midnightblue" points="185.634,-54.6154 195.899,-57.2379 189.509,-48.7864 185.634,-54.6154"/>
</g>
</g>
</svg>
