<?xml version="1.0" encoding="UTF-8" standalone="no"?>
<!DOCTYPE svg PUBLIC "-//W3C//DTD SVG 1.1//EN"
 "http://www.w3.org/Graphics/SVG/1.1/DTD/svg11.dtd">
<!-- Generated by graphviz version 2.38.0 (20140413.2041)
 -->
<!-- Title: showEmpfohlen Pages: 1 -->
<svg width="174pt" height="28pt"
 viewBox="0.00 0.00 174.00 28.00" xmlns="http://www.w3.org/2000/svg" xmlns:xlink="http://www.w3.org/1999/xlink">
<g id="graph0" class="graph" transform="scale(1 1) rotate(0) translate(4 24)">
<title>showEmpfohlen</title>
<polygon fill="white" stroke="none" points="-4,4 -4,-24 170,-24 170,4 -4,4"/>
<!-- Node1 -->
<g id="node1" class="node"><title>Node1</title>
<polygon fill="#bfbfbf" stroke="black" points="0,-0.5 0,-19.5 85,-19.5 85,-0.5 0,-0.5"/>
<text text-anchor="middle" x="42.5" y="-7.5" font-family="Helvetica,sans-Serif" font-size="10.00">showEmpfohlen</text>
</g>
<!-- Node2 -->
<g id="node2" class="node"><title>Node2</title>
<g id="a_node2"><a xlink:href="graph_8js.html#a5c1c7770c4c44dde3dcba63aa2a48056" target="_top" xlink:title="Gets a list of all courses. ">
<polygon fill="white" stroke="red" points="121,-0.5 121,-19.5 166,-19.5 166,-0.5 121,-0.5"/>
<text text-anchor="middle" x="143.5" y="-7.5" font-family="Helvetica,sans-Serif" font-size="10.00">jQuery</text>
</a>
</g>
</g>
<!-- Node1&#45;&gt;Node2 -->
<g id="edge1" class="edge"><title>Node1&#45;&gt;Node2</title>
<path fill="none" stroke="midnightblue" d="M95.3381,-3.2567C104.337,-3.30829 113.232,-3.65791 120.831,-4.30555"/>
<polygon fill="midnightblue" stroke="midnightblue" points="95.1741,0.242374 85.198,-3.32508 95.2214,-6.75747 95.1741,0.242374"/>
</g>
<!-- Node2&#45;&gt;Node1 -->
<g id="edge2" class="edge"><title>Node2&#45;&gt;Node1</title>
<path fill="none" stroke="midnightblue" d="M110.675,-16.352C102.563,-16.7326 93.7223,-16.8402 85.198,-16.6749"/>
<polygon fill="midnightblue" stroke="midnightblue" points="111.078,-19.8333 120.831,-15.6944 110.626,-12.8479 111.078,-19.8333"/>
</g>
</g>
</svg>
