<?xml version="1.0" encoding="UTF-8" standalone="no"?>
<!DOCTYPE svg PUBLIC "-//W3C//DTD SVG 1.1//EN"
 "http://www.w3.org/Graphics/SVG/1.1/DTD/svg11.dtd">
<!-- Generated by graphviz version 2.38.0 (20140413.2041)
 -->
<!-- Title: jQuery Pages: 1 -->
<!--zoomable 520 -->
<svg id="main" version="1.1" xmlns="http://www.w3.org/2000/svg" xmlns:xlink="http://www.w3.org/1999/xlink" xml:space="preserve" onload="init(evt)">
<style type="text/css"><![CDATA[
.edge:hover path { stroke: red; }
.edge:hover polygon { stroke: red; fill: red; }
]]></style>
<script type="text/javascript"><![CDATA[
var edges = document.getElementsByTagName('g');
if (edges && edges.length) {
  for (var i=0;i<edges.length;i++) {
    if (edges[i].id.substr(0,4)=='edge') {
      edges[i].setAttribute('class','edge');
    }
  }
}
]]></script>
        <defs>
                <circle id="rim" cx="0" cy="0" r="7"/>
                <circle id="rim2" cx="0" cy="0" r="3.5"/>
                <g id="zoomPlus">
                        <use xlink:href="#rim" fill="#404040">
                                <set attributeName="fill" to="#808080" begin="zoomplus.mouseover" end="zoomplus.mouseout"/>
                        </use>
                        <path d="M-4,0h8M0,-4v8" fill="none" stroke="white" stroke-width="1.5" pointer-events="none"/>
                </g>
                <g id="zoomMin">
                        <use xlink:href="#rim" fill="#404040">
                                <set attributeName="fill" to="#808080" begin="zoomminus.mouseover" end="zoomminus.mouseout"/>
                        </use>
                        <path d="M-4,0h8" fill="none" stroke="white" stroke-width="1.5" pointer-events="none"/>
                </g>
                <g id="dirArrow">
                        <path fill="none" stroke="white" stroke-width="1.5" d="M0,-3.0v7 M-2.5,-0.5L0,-3.0L2.5,-0.5"/>
                </g>
               <g id="resetDef">
                       <use xlink:href="#rim2" fill="#404040">
                               <set attributeName="fill" to="#808080" begin="reset.mouseover" end="reset.mouseout"/>
                       </use>
               </g>
        </defs>

<script type="text/javascript">
var viewWidth = 572;
var viewHeight = 520;
var sectionId = 'dynsection-22';
</script>
<script xlink:href="svgpan.js"/>
<svg id="graph" class="graph">
<g id="viewport">
<title>jQuery</title>
<polygon fill="white" stroke="none" points="-4,4 -4,-516 568,-516 568,4 -4,4"/>
<!-- Node1 -->
<g id="node1" class="node"><title>Node1</title>
<polygon fill="#bfbfbf" stroke="black" points="0,-208.5 0,-227.5 45,-227.5 45,-208.5 0,-208.5"/>
<text text-anchor="middle" x="22.5" y="-215.5" font-family="Helvetica,sans-Serif" font-size="10.00">jQuery</text>
</g>
<!-- Node2 -->
<g id="node2" class="node"><title>Node2</title>
<g id="a_node2"><a xlink:href="graph_8js.html#a0f059d7a7d52e5d870756301132c5d46" target="_top" xlink:title="Adds missing stylesheets and the jQuery effect library. ">
<polygon fill="white" stroke="black" points="99,-492.5 99,-511.5 178,-511.5 178,-492.5 99,-492.5"/>
<text text-anchor="middle" x="138.5" y="-499.5" font-family="Helvetica,sans-Serif" font-size="10.00">addResources</text>
</a>
</g>
</g>
<!-- Node1&#45;&gt;Node2 -->
<g id="edge1" class="edge"><title>Node1&#45;&gt;Node2</title>
<path fill="none" stroke="midnightblue" d="M26.0518,-237.954C32.4936,-291.085 51.0639,-432.977 81,-469 91.4216,-481.541 109.568,-487.664 122.482,-492.482"/>
<polygon fill="midnightblue" stroke="midnightblue" points="29.4963,-237.281 24.8301,-227.769 22.5461,-238.114 29.4963,-237.281"/>
</g>
<!-- Node3 -->
<g id="node3" class="node"><title>Node3</title>
<g id="a_node3"><a xlink:href="graph_8js.html#a0c9811785ee3747b64633dd5a6d9490d" target="_top" xlink:title="Empties main &lt;div&gt; ">
<polygon fill="white" stroke="black" points="275.5,-360.5 275.5,-379.5 325.5,-379.5 325.5,-360.5 275.5,-360.5"/>
<text text-anchor="middle" x="300.5" y="-367.5" font-family="Helvetica,sans-Serif" font-size="10.00">clearDiv</text>
</a>
</g>
</g>
<!-- Node1&#45;&gt;Node3 -->
<g id="edge3" class="edge"><title>Node1&#45;&gt;Node3</title>
<path fill="none" stroke="midnightblue" d="M26.7134,-237.778C32.3707,-265.688 46.9172,-316.007 81,-341 139.786,-384.108 232.075,-379.118 275.453,-373.742"/>
<polygon fill="midnightblue" stroke="midnightblue" points="30.1011,-236.847 24.8535,-227.643 23.2161,-238.111 30.1011,-236.847"/>
</g>
<!-- Node4 -->
<g id="node4" class="node"><title>Node4</title>
<g id="a_node4"><a xlink:href="graph_8js.html#ad12ffebfdf1d234de094ec345fbc9553" target="_top" xlink:title="Extracts top&#45;level courses and fills page with content. ">
<polygon fill="white" stroke="black" points="405,-360.5 405,-379.5 460,-379.5 460,-360.5 405,-360.5"/>
<text text-anchor="middle" x="432.5" y="-367.5" font-family="Helvetica,sans-Serif" font-size="10.00">fill_crclm</text>
</a>
</g>
</g>
<!-- Node1&#45;&gt;Node4 -->
<g id="edge20" class="edge"><title>Node1&#45;&gt;Node4</title>
<path fill="none" stroke="midnightblue" d="M24.5704,-237.916C27.5388,-271.515 38.7394,-339.013 81,-372 179.095,-448.57 344.131,-401.531 406.563,-379.507"/>
<polygon fill="midnightblue" stroke="midnightblue" points="28.0339,-237.281 23.8263,-227.558 21.0519,-237.783 28.0339,-237.281"/>
</g>
<!-- Node5 -->
<g id="node5" class="node"><title>Node5</title>
<g id="a_node5"><a xlink:href="graph_8js.html#a7c5be5387a50b7e1424c667fdcb2bf3f" target="_top" xlink:title="Extracts curricula from JSON. ">
<polygon fill="white" stroke="red" points="496,-445.5 496,-464.5 564,-464.5 564,-445.5 496,-445.5"/>
<text text-anchor="middle" x="530" y="-452.5" font-family="Helvetica,sans-Serif" font-size="10.00">getCurricula</text>
</a>
</g>
</g>
<!-- Node1&#45;&gt;Node5 -->
<g id="edge21" class="edge"><title>Node1&#45;&gt;Node5</title>
<path fill="none" stroke="midnightblue" d="M23.0802,-237.987C23.9217,-275.808 32.1546,-356.566 81,-397 203.802,-498.655 414.916,-469.535 495.977,-457.951"/>
<polygon fill="midnightblue" stroke="midnightblue" points="26.5787,-237.7 23.0196,-227.72 19.5788,-237.741 26.5787,-237.7"/>
</g>
<!-- Node6 -->
<g id="node6" class="node"><title>Node6</title>
<g id="a_node6"><a xlink:href="graph_8js.html#ac307c11e1cc6808c1ef6ae5a5e22d2bd" target="_top" xlink:title="Creates the &lt;div&gt;s for all courses recursively. ">
<polygon fill="white" stroke="black" points="269.5,-322.5 269.5,-341.5 331.5,-341.5 331.5,-322.5 269.5,-322.5"/>
<text text-anchor="middle" x="300.5" y="-329.5" font-family="Helvetica,sans-Serif" font-size="10.00">createDivs</text>
</a>
</g>
</g>
<!-- Node1&#45;&gt;Node6 -->
<g id="edge7" class="edge"><title>Node1&#45;&gt;Node6</title>
<path fill="none" stroke="midnightblue" d="M29.2832,-237.376C37.0822,-259.772 53.2886,-295.756 81,-313 139.516,-349.412 224.513,-343.833 269.294,-337.439"/>
<polygon fill="midnightblue" stroke="midnightblue" points="32.5315,-236.047 26.1164,-227.615 25.8731,-238.207 32.5315,-236.047"/>
</g>
<!-- Node7 -->
<g id="node7" class="node"><title>Node7</title>
<g id="a_node7"><a xlink:href="graph_8js.html#a330fee2505037114678ec4c4fee6ec76" target="_top" xlink:title="Creates the header table cells. ">
<polygon fill="white" stroke="black" points="109,-284.5 109,-303.5 168,-303.5 168,-284.5 109,-284.5"/>
<text text-anchor="middle" x="138.5" y="-291.5" font-family="Helvetica,sans-Serif" font-size="10.00">createTds</text>
</a>
</g>
</g>
<!-- Node1&#45;&gt;Node7 -->
<g id="edge9" class="edge"><title>Node1&#45;&gt;Node7</title>
<path fill="none" stroke="midnightblue" d="M39.5858,-235.268C50.4924,-246.254 65.6661,-260.205 81,-270 89.8915,-275.68 100.356,-280.556 109.846,-284.4"/>
<polygon fill="midnightblue" stroke="midnightblue" points="41.924,-232.651 32.457,-227.894 36.8914,-237.516 41.924,-232.651"/>
</g>
<!-- Node8 -->
<g id="node8" class="node"><title>Node8</title>
<g id="a_node8"><a xlink:href="graph_8js.html#af2f9db583f5a6060fb6e361e13eb4333" target="_top" xlink:title="Expands all divs. ">
<polygon fill="white" stroke="black" points="269,-189.5 269,-208.5 332,-208.5 332,-189.5 269,-189.5"/>
<text text-anchor="middle" x="300.5" y="-196.5" font-family="Helvetica,sans-Serif" font-size="10.00">expand_all</text>
</a>
</g>
</g>
<!-- Node1&#45;&gt;Node8 -->
<g id="edge11" class="edge"><title>Node1&#45;&gt;Node8</title>
<path fill="none" stroke="midnightblue" d="M55.4282,-215.802C108.994,-212.115 216.252,-204.731 268.909,-201.106"/>
<polygon fill="midnightblue" stroke="midnightblue" points="54.8932,-212.33 45.1573,-216.509 55.3741,-219.314 54.8932,-212.33"/>
</g>
<!-- Node9 -->
<g id="node9" class="node"><title>Node9</title>
<g id="a_node9"><a xlink:href="graph_8js.html#ac6ee0322be8a49fdf390d82d6bf998cf" target="_top" xlink:title="Toggles the expansion/reduction of a course &lt;div&gt; ">
<polygon fill="white" stroke="black" points="97,-170.5 97,-189.5 180,-189.5 180,-170.5 97,-170.5"/>
<text text-anchor="middle" x="138.5" y="-177.5" font-family="Helvetica,sans-Serif" font-size="10.00">expand_reduce</text>
</a>
</g>
</g>
<!-- Node1&#45;&gt;Node9 -->
<g id="edge12" class="edge"><title>Node1&#45;&gt;Node9</title>
<path fill="none" stroke="midnightblue" d="M47.9164,-204.207C62.0784,-198.411 80.2809,-192.059 96.5749,-187.136"/>
<polygon fill="midnightblue" stroke="midnightblue" points="46.2054,-201.133 38.4035,-208.301 48.9726,-207.563 46.2054,-201.133"/>
</g>
<!-- Node10 -->
<g id="node10" class="node"><title>Node10</title>
<g id="a_node10"><a xlink:href="graph_8js.html#a0dd09e25cba850e08e98664cca21b625" target="_top" xlink:title="Expands the curriculum tree down to an element. ">
<polygon fill="white" stroke="black" points="232,-108.5 232,-127.5 369,-127.5 369,-108.5 232,-108.5"/>
<text text-anchor="middle" x="300.5" y="-115.5" font-family="Helvetica,sans-Serif" font-size="10.00">expandAndScrollToElement</text>
</a>
</g>
</g>
<!-- Node1&#45;&gt;Node10 -->
<g id="edge19" class="edge"><title>Node1&#45;&gt;Node10</title>
<path fill="none" stroke="midnightblue" d="M27.2278,-198.517C33.9074,-173.375 50.1868,-131.835 81,-114 146.679,-75.9839 243.096,-94.3162 282.136,-108.447"/>
<polygon fill="midnightblue" stroke="midnightblue" points="23.7691,-197.935 24.8771,-208.471 30.5817,-199.543 23.7691,-197.935"/>
</g>
<!-- Node11 -->
<g id="node11" class="node"><title>Node11</title>
<g id="a_node11"><a xlink:href="graph_8js.html#a55ac568a54e097c62f289c73ef0d8880" target="_top" xlink:title="Reduces all divs. ">
<polygon fill="white" stroke="black" points="270,-246.5 270,-265.5 331,-265.5 331,-246.5 270,-246.5"/>
<text text-anchor="middle" x="300.5" y="-253.5" font-family="Helvetica,sans-Serif" font-size="10.00">reduce_all</text>
</a>
</g>
</g>
<!-- Node1&#45;&gt;Node11 -->
<g id="edge24" class="edge"><title>Node1&#45;&gt;Node11</title>
<path fill="none" stroke="midnightblue" d="M55.1491,-222.357C108.917,-229.76 217.357,-244.69 269.783,-251.909"/>
<polygon fill="midnightblue" stroke="midnightblue" points="55.5412,-218.879 45.1573,-220.982 54.5864,-225.813 55.5412,-218.879"/>
</g>
<!-- Node12 -->
<g id="node12" class="node"><title>Node12</title>
<g id="a_node12"><a xlink:href="graph_8js.html#a0726fbe63d87bbdd3a3e383db303150a" target="_top" xlink:title="Checks if an element is fully visible. ">
<polygon fill="white" stroke="black" points="101.5,-132.5 101.5,-151.5 175.5,-151.5 175.5,-132.5 101.5,-132.5"/>
<text text-anchor="middle" x="138.5" y="-139.5" font-family="Helvetica,sans-Serif" font-size="10.00">isFullyVisible</text>
</a>
</g>
</g>
<!-- Node1&#45;&gt;Node12 -->
<g id="edge22" class="edge"><title>Node1&#45;&gt;Node12</title>
<path fill="none" stroke="midnightblue" d="M37.5877,-200.226C48.318,-187.726 64.0868,-171.433 81,-161 87.2536,-157.142 94.3844,-153.963 101.425,-151.383"/>
<polygon fill="midnightblue" stroke="midnightblue" points="34.7018,-198.223 31.0119,-208.154 40.0898,-202.691 34.7018,-198.223"/>
</g>
<!-- Node13 -->
<g id="node13" class="node"><title>Node13</title>
<g id="a_node13"><a xlink:href="graph_8js.html#a33066162480e6f749f6688423b7723ad" target="_top" xlink:title="Shows or hides recommended courses. ">
<polygon fill="white" stroke="black" points="96,-38.5 96,-57.5 181,-57.5 181,-38.5 96,-38.5"/>
<text text-anchor="middle" x="138.5" y="-45.5" font-family="Helvetica,sans-Serif" font-size="10.00">showEmpfohlen</text>
</a>
</g>
</g>
<!-- Node1&#45;&gt;Node13 -->
<g id="edge25" class="edge"><title>Node1&#45;&gt;Node13</title>
<path fill="none" stroke="midnightblue" d="M25.4881,-198.094C30.1027,-165.26 44.1065,-100.884 81,-63 85.2381,-58.648 90.39,-55.0442 95.8386,-52.1705"/>
<polygon fill="midnightblue" stroke="midnightblue" points="21.9801,-197.943 24.2253,-208.297 28.9271,-198.803 21.9801,-197.943"/>
</g>
<!-- Node14 -->
<g id="node14" class="node"><title>Node14</title>
<g id="a_node14"><a xlink:href="graph_8js.html#a018753126c02ed98b7021f2ceb0518b2" target="_top" xlink:title="Shows or hides required courses. ">
<polygon fill="white" stroke="black" points="81,-0.5 81,-19.5 196,-19.5 196,-0.5 81,-0.5"/>
<text text-anchor="middle" x="138.5" y="-7.5" font-family="Helvetica,sans-Serif" font-size="10.00">showVoraussetzungen</text>
</a>
</g>
</g>
<!-- Node1&#45;&gt;Node14 -->
<g id="edge27" class="edge"><title>Node1&#45;&gt;Node14</title>
<path fill="none" stroke="midnightblue" d="M23.66,-198.124C24.868,-158.267 32.8295,-69.5914 81,-20 81.1442,-19.8515 81.2896,-19.7042 81.4362,-19.5581"/>
<polygon fill="midnightblue" stroke="midnightblue" points="20.1591,-198.142 23.469,-208.207 27.1579,-198.275 20.1591,-198.142"/>
</g>
<!-- Node2&#45;&gt;Node1 -->
<g id="edge2" class="edge"><title>Node2&#45;&gt;Node1</title>
<path fill="none" stroke="midnightblue" d="M90.0704,-495.228C86.6986,-492.874 83.6075,-490.138 81,-487 47.2423,-446.379 27.9374,-271.132 24.1794,-227.55"/>
<polygon fill="midnightblue" stroke="midnightblue" points="88.4989,-498.361 98.9141,-500.304 91.9838,-492.29 88.4989,-498.361"/>
</g>
<!-- Node3&#45;&gt;Node4 -->
<g id="edge4" class="edge"><title>Node3&#45;&gt;Node4</title>
<path fill="none" stroke="midnightblue" d="M335.717,-370C357.315,-370 384.808,-370 404.794,-370"/>
<polygon fill="midnightblue" stroke="midnightblue" points="335.647,-366.5 325.647,-370 335.647,-373.5 335.647,-366.5"/>
</g>
<!-- Node4&#45;&gt;Node5 -->
<g id="edge5" class="edge"><title>Node4&#45;&gt;Node5</title>
<path fill="none" stroke="midnightblue" d="M452.16,-386.608C471.826,-404.112 502.129,-431.084 518.173,-445.363"/>
<polygon fill="midnightblue" stroke="midnightblue" points="454.252,-383.785 444.455,-379.751 449.598,-389.014 454.252,-383.785"/>
</g>
<!-- Node5&#45;&gt;Node1 -->
<g id="edge6" class="edge"><title>Node5&#45;&gt;Node1</title>
<path fill="none" stroke="midnightblue" d="M494.865,-467.158C413.001,-487.797 203.244,-516.193 81,-415 22.632,-366.683 22.2552,-260.787 23.1847,-227.642"/>
<polygon fill="midnightblue" stroke="midnightblue" points="495.882,-470.509 504.651,-464.563 494.088,-463.743 495.882,-470.509"/>
</g>
<!-- Node6&#45;&gt;Node4 -->
<g id="edge8" class="edge"><title>Node6&#45;&gt;Node4</title>
<path fill="none" stroke="midnightblue" d="M341.671,-343.16C350.674,-345.702 360.171,-348.416 369,-351 380.755,-354.441 393.715,-358.36 404.772,-361.742"/>
<polygon fill="midnightblue" stroke="midnightblue" points="342.354,-339.716 331.78,-340.379 340.459,-346.455 342.354,-339.716"/>
</g>
<!-- Node7&#45;&gt;Node6 -->
<g id="edge10" class="edge"><title>Node7&#45;&gt;Node6</title>
<path fill="none" stroke="midnightblue" d="M177.957,-303.134C205.958,-309.784 243.356,-318.666 269.239,-324.813"/>
<polygon fill="midnightblue" stroke="midnightblue" points="178.643,-299.699 168.105,-300.794 177.025,-306.51 178.643,-299.699"/>
</g>
<!-- Node9&#45;&gt;Node1 -->
<g id="edge16" class="edge"><title>Node9&#45;&gt;Node1</title>
<path fill="none" stroke="midnightblue" d="M113.33,-193.692C93.1581,-201.966 64.664,-211.397 45.2109,-216.198"/>
<polygon fill="midnightblue" stroke="midnightblue" points="114.961,-196.8 122.757,-189.626 112.189,-190.373 114.961,-196.8"/>
</g>
<!-- Node9&#45;&gt;Node8 -->
<g id="edge13" class="edge"><title>Node9&#45;&gt;Node8</title>
<path fill="none" stroke="midnightblue" d="M190.299,-186.032C216.136,-189.101 246.685,-192.728 268.891,-195.365"/>
<polygon fill="midnightblue" stroke="midnightblue" points="190.632,-182.547 180.289,-184.844 189.806,-189.499 190.632,-182.547"/>
</g>
<!-- Node9&#45;&gt;Node10 -->
<g id="edge14" class="edge"><title>Node9&#45;&gt;Node10</title>
<path fill="none" stroke="midnightblue" d="M178.828,-167.166C184.61,-165.166 190.476,-163.074 196,-161 224.6,-150.265 257.048,-136.524 277.868,-127.502"/>
<polygon fill="midnightblue" stroke="midnightblue" points="177.592,-163.889 169.253,-170.425 179.847,-170.516 177.592,-163.889"/>
</g>
<!-- Node9&#45;&gt;Node11 -->
<g id="edge17" class="edge"><title>Node9&#45;&gt;Node11</title>
<path fill="none" stroke="midnightblue" d="M169.097,-194.059C201.208,-209.311 251.598,-233.246 279.4,-246.453"/>
<polygon fill="midnightblue" stroke="midnightblue" points="170.299,-190.755 159.764,-189.625 167.295,-197.078 170.299,-190.755"/>
</g>
<!-- Node10&#45;&gt;Node1 -->
<g id="edge15" class="edge"><title>Node10&#45;&gt;Node1</title>
<path fill="none" stroke="midnightblue" d="M221.804,-110.13C177.683,-106.419 123.044,-107.664 81,-132 50.9663,-149.384 34.7404,-189.288 27.7532,-208.321"/>
<polygon fill="midnightblue" stroke="midnightblue" points="221.629,-113.628 231.912,-111.078 222.283,-106.659 221.629,-113.628"/>
</g>
<!-- Node11&#45;&gt;Node4 -->
<g id="edge18" class="edge"><title>Node11&#45;&gt;Node4</title>
<path fill="none" stroke="midnightblue" d="M320.832,-271.992C334.42,-283.313 352.962,-298.924 369,-313 387.543,-329.274 408.665,-348.736 420.995,-360.194"/>
<polygon fill="midnightblue" stroke="midnightblue" points="323.008,-269.249 313.079,-265.55 318.534,-274.633 323.008,-269.249"/>
</g>
<!-- Node12&#45;&gt;Node10 -->
<g id="edge23" class="edge"><title>Node12&#45;&gt;Node10</title>
<path fill="none" stroke="midnightblue" d="M185.769,-135.06C201.443,-132.709 219.231,-130.04 236.007,-127.524"/>
<polygon fill="midnightblue" stroke="midnightblue" points="185.177,-131.609 175.806,-136.554 186.215,-138.532 185.177,-131.609"/>
</g>
<!-- Node13&#45;&gt;Node1 -->
<g id="edge26" class="edge"><title>Node13&#45;&gt;Node1</title>
<path fill="none" stroke="midnightblue" d="M114.344,-61.3647C103.037,-65.928 89.9712,-71.7878 81,-81 44.128,-118.862 30.1191,-183.184 25.4962,-208.203"/>
<polygon fill="midnightblue" stroke="midnightblue" points="115.692,-64.5952 123.681,-57.6365 113.096,-58.0942 115.692,-64.5952"/>
</g>
<!-- Node14&#45;&gt;Node1 -->
<g id="edge28" class="edge"><title>Node14&#45;&gt;Node1</title>
<path fill="none" stroke="midnightblue" d="M108.964,-22.4925C98.9723,-25.8071 88.4089,-30.3726 81,-38 32.2503,-88.1878 24.6824,-178.406 23.6193,-208.432"/>
<polygon fill="midnightblue" stroke="midnightblue" points="110.095,-25.8069 118.628,-19.5278 108.041,-19.1147 110.095,-25.8069"/>
</g>
</g>
</svg>
        <g id="navigator" transform="translate(0 0)" fill="#404254">
                <rect fill="#f2f5e9" fill-opacity="0.5" stroke="#606060" stroke-width=".5" x="0" y="0" width="60" height="60"/>
                <use id="zoomplus" xlink:href="#zoomPlus" x="17" y="9" onmousedown="handleZoom(evt,'in')"/>
                <use id="zoomminus" xlink:href="#zoomMin" x="42" y="9" onmousedown="handleZoom(evt,'out')"/>
                <use id="reset" xlink:href="#resetDef" x="30" y="36" onmousedown="handleReset()"/>
                <g id="arrowUp" xlink:href="#dirArrow" transform="translate(30 24)" onmousedown="handlePan(0,-1)">
                  <use xlink:href="#rim" fill="#404040">
                        <set attributeName="fill" to="#808080" begin="arrowUp.mouseover" end="arrowUp.mouseout"/>
                  </use>
                  <path fill="none" stroke="white" stroke-width="1.5" d="M0,-3.0v7 M-2.5,-0.5L0,-3.0L2.5,-0.5"/>
                </g>
                <g id="arrowRight" xlink:href="#dirArrow" transform="rotate(90) translate(36 -43)" onmousedown="handlePan(1,0)">
                  <use xlink:href="#rim" fill="#404040">
                        <set attributeName="fill" to="#808080" begin="arrowRight.mouseover" end="arrowRight.mouseout"/>
                  </use>
                  <path fill="none" stroke="white" stroke-width="1.5" d="M0,-3.0v7 M-2.5,-0.5L0,-3.0L2.5,-0.5"/>
                </g>
                <g id="arrowDown" xlink:href="#dirArrow" transform="rotate(180) translate(-30 -48)" onmousedown="handlePan(0,1)">
                  <use xlink:href="#rim" fill="#404040">
                        <set attributeName="fill" to="#808080" begin="arrowDown.mouseover" end="arrowDown.mouseout"/>
                  </use>
                  <path fill="none" stroke="white" stroke-width="1.5" d="M0,-3.0v7 M-2.5,-0.5L0,-3.0L2.5,-0.5"/>
                </g>
                <g id="arrowLeft" xlink:href="#dirArrow" transform="rotate(270) translate(-36 17)" onmousedown="handlePan(-1,0)">
                  <use xlink:href="#rim" fill="#404040">
                        <set attributeName="fill" to="#808080" begin="arrowLeft.mouseover" end="arrowLeft.mouseout"/>
                  </use>
                  <path fill="none" stroke="white" stroke-width="1.5" d="M0,-3.0v7 M-2.5,-0.5L0,-3.0L2.5,-0.5"/>
                </g>
        </g>
        <svg viewBox="0 0 15 15" width="100%" height="30px" preserveAspectRatio="xMaxYMin meet">
         <g id="arrow_out" transform="scale(0.3 0.3)">
          <a xlink:href="graph_8js_a5c1c7770c4c44dde3dcba63aa2a48056_icgraph_org.svg" target="_base">
           <rect id="button" ry="5" rx="5" y="6" x="6" height="38" width="38"
                fill="#f2f5e9" fill-opacity="0.5" stroke="#606060" stroke-width="1.0"/>
           <path id="arrow"
             d="M 11.500037,31.436501 C 11.940474,20.09759 22.043105,11.32322 32.158766,21.979434 L 37.068811,17.246167 C 37.068811,17.246167 37.088388,32 37.088388,32 L 22.160133,31.978069 C 22.160133,31.978069 26.997745,27.140456 26.997745,27.140456 C 18.528582,18.264221 13.291696,25.230495 11.500037,31.436501 z"
             style="fill:#404040;"/>
          </a>
         </g>
        </svg>
</svg>
