<?xml version="1.0" encoding="UTF-8" standalone="no"?>
<!DOCTYPE svg PUBLIC "-//W3C//DTD SVG 1.1//EN"
 "http://www.w3.org/Graphics/SVG/1.1/DTD/svg11.dtd">
<!-- Generated by graphviz version 2.38.0 (20140413.2041)
 -->
<!-- Title: getCurricula Pages: 1 -->
<svg width="248pt" height="75pt"
 viewBox="0.00 0.00 248.00 75.00" xmlns="http://www.w3.org/2000/svg" xmlns:xlink="http://www.w3.org/1999/xlink">
<g id="graph0" class="graph" transform="scale(1 1) rotate(0) translate(4 71)">
<title>getCurricula</title>
<polygon fill="white" stroke="none" points="-4,4 -4,-71 244,-71 244,4 -4,4"/>
<!-- Node1 -->
<g id="node1" class="node"><title>Node1</title>
<polygon fill="#bfbfbf" stroke="black" points="0,-0.5 0,-19.5 68,-19.5 68,-0.5 0,-0.5"/>
<text text-anchor="middle" x="34" y="-7.5" font-family="Helvetica,sans-Serif" font-size="10.00">getCurricula</text>
</g>
<!-- Node2 -->
<g id="node2" class="node"><title>Node2</title>
<g id="a_node2"><a xlink:href="graph_8js.html#ad12ffebfdf1d234de094ec345fbc9553" target="_top" xlink:title="Extracts top&#45;level courses and fills page with content. ">
<polygon fill="white" stroke="red" points="104,-47.5 104,-66.5 159,-66.5 159,-47.5 104,-47.5"/>
<text text-anchor="middle" x="131.5" y="-54.5" font-family="Helvetica,sans-Serif" font-size="10.00">fill_crclm</text>
</a>
</g>
</g>
<!-- Node1&#45;&gt;Node2 -->
<g id="edge1" class="edge"><title>Node1&#45;&gt;Node2</title>
<path fill="none" stroke="midnightblue" d="M54.3259,-19.5112C67.9566,-26.2195 86.4461,-35.319 101.795,-42.8731"/>
<polygon fill="midnightblue" stroke="midnightblue" points="100.357,-46.0662 110.875,-47.3417 103.448,-39.7856 100.357,-46.0662"/>
</g>
<!-- Node3 -->
<g id="node3" class="node"><title>Node3</title>
<g id="a_node3"><a xlink:href="graph_8js.html#a5c1c7770c4c44dde3dcba63aa2a48056" target="_top" xlink:title="Gets a list of all courses. ">
<polygon fill="white" stroke="red" points="195,-0.5 195,-19.5 240,-19.5 240,-0.5 195,-0.5"/>
<text text-anchor="middle" x="217.5" y="-7.5" font-family="Helvetica,sans-Serif" font-size="10.00">jQuery</text>
</a>
</g>
</g>
<!-- Node1&#45;&gt;Node3 -->
<g id="edge4" class="edge"><title>Node1&#45;&gt;Node3</title>
<path fill="none" stroke="midnightblue" d="M68.2899,-4.63593C101.39,-2.76415 151.816,-2.78833 184.468,-4.70848"/>
<polygon fill="midnightblue" stroke="midnightblue" points="184.59,-8.22545 194.81,-5.43234 185.078,-1.24254 184.59,-8.22545"/>
</g>
<!-- Node2&#45;&gt;Node3 -->
<g id="edge2" class="edge"><title>Node2&#45;&gt;Node3</title>
<path fill="none" stroke="midnightblue" d="M149.499,-47.4888C161.262,-40.9071 177.139,-32.0235 190.485,-24.5561"/>
<polygon fill="midnightblue" stroke="midnightblue" points="192.22,-27.5956 199.238,-19.6583 188.802,-21.4868 192.22,-27.5956"/>
</g>
<!-- Node3&#45;&gt;Node1 -->
<g id="edge3" class="edge"><title>Node3&#45;&gt;Node1</title>
<path fill="none" stroke="midnightblue" d="M194.81,-14.5677C166.256,-16.9471 115.391,-17.3808 78.7046,-15.8687"/>
<polygon fill="midnightblue" stroke="midnightblue" points="78.4476,-12.3523 68.2899,-15.3641 78.1087,-19.3441 78.4476,-12.3523"/>
</g>
</g>
</svg>
