<?xml version="1.0" encoding="UTF-8" standalone="no"?>
<!DOCTYPE svg PUBLIC "-//W3C//DTD SVG 1.1//EN"
 "http://www.w3.org/Graphics/SVG/1.1/DTD/svg11.dtd">
<!-- Generated by graphviz version 2.38.0 (20140413.2041)
 -->
<!-- Title: expand_reduce Pages: 1 -->
<svg width="444pt" height="99pt"
 viewBox="0.00 0.00 444.00 99.39" xmlns="http://www.w3.org/2000/svg" xmlns:xlink="http://www.w3.org/1999/xlink">
<g id="graph0" class="graph" transform="scale(1 1) rotate(0) translate(4 95.3898)">
<title>expand_reduce</title>
<polygon fill="white" stroke="none" points="-4,4 -4,-95.3898 440,-95.3898 440,4 -4,4"/>
<!-- Node1 -->
<g id="node1" class="node"><title>Node1</title>
<polygon fill="#bfbfbf" stroke="black" points="0,-0.5 0,-19.5 83,-19.5 83,-0.5 0,-0.5"/>
<text text-anchor="middle" x="41.5" y="-7.5" font-family="Helvetica,sans-Serif" font-size="10.00">expand_reduce</text>
</g>
<!-- Node2 -->
<g id="node2" class="node"><title>Node2</title>
<g id="a_node2"><a xlink:href="graph_8js.html#af2f9db583f5a6060fb6e361e13eb4333" target="_top" xlink:title="Expands all divs. ">
<polygon fill="white" stroke="black" points="373,-44.5 373,-63.5 436,-63.5 436,-44.5 373,-44.5"/>
<text text-anchor="middle" x="404.5" y="-51.5" font-family="Helvetica,sans-Serif" font-size="10.00">expand_all</text>
</a>
</g>
</g>
<!-- Node1&#45;&gt;Node2 -->
<g id="edge1" class="edge"><title>Node1&#45;&gt;Node2</title>
<path fill="none" stroke="midnightblue" d="M56.4087,-27.6909C70.2806,-43.7724 93.197,-66.4076 119,-76 208.387,-109.23 324.21,-80.0458 376.17,-63.523"/>
<polygon fill="midnightblue" stroke="midnightblue" points="58.7455,-25.0251 49.6718,-19.5554 53.3541,-29.4897 58.7455,-25.0251"/>
</g>
<!-- Node3 -->
<g id="node3" class="node"><title>Node3</title>
<g id="a_node3"><a xlink:href="graph_8js.html#a0dd09e25cba850e08e98664cca21b625" target="_top" xlink:title="Expands the curriculum tree down to an element. ">
<polygon fill="white" stroke="black" points="119,-47.5 119,-66.5 256,-66.5 256,-47.5 119,-47.5"/>
<text text-anchor="middle" x="187.5" y="-54.5" font-family="Helvetica,sans-Serif" font-size="10.00">expandAndScrollToElement</text>
</a>
</g>
</g>
<!-- Node1&#45;&gt;Node3 -->
<g id="edge2" class="edge"><title>Node1&#45;&gt;Node3</title>
<path fill="none" stroke="midnightblue" d="M81.4069,-22.6988C105.17,-30.4548 135.08,-40.217 156.909,-47.3417"/>
<polygon fill="midnightblue" stroke="midnightblue" points="82.233,-19.2868 71.6405,-19.5112 80.061,-25.9413 82.233,-19.2868"/>
</g>
<!-- Node4 -->
<g id="node4" class="node"><title>Node4</title>
<g id="a_node4"><a xlink:href="graph_8js.html#a5c1c7770c4c44dde3dcba63aa2a48056" target="_top" xlink:title="Gets a list of all courses. ">
<polygon fill="white" stroke="red" points="292,-23.5 292,-42.5 337,-42.5 337,-23.5 292,-23.5"/>
<text text-anchor="middle" x="314.5" y="-30.5" font-family="Helvetica,sans-Serif" font-size="10.00">jQuery</text>
</a>
</g>
</g>
<!-- Node1&#45;&gt;Node4 -->
<g id="edge8" class="edge"><title>Node1&#45;&gt;Node4</title>
<path fill="none" stroke="midnightblue" d="M93.3891,-8.91065C152.961,-11.7649 248.911,-20.4163 291.694,-27.2652"/>
<polygon fill="midnightblue" stroke="midnightblue" points="93.2144,-5.3998 83.0714,-8.46086 92.9095,-12.3932 93.2144,-5.3998"/>
</g>
<!-- Node5 -->
<g id="node5" class="node"><title>Node5</title>
<g id="a_node5"><a xlink:href="graph_8js.html#a55ac568a54e097c62f289c73ef0d8880" target="_top" xlink:title="Reduces all divs. ">
<polygon fill="white" stroke="red" points="374,-2.5 374,-21.5 435,-21.5 435,-2.5 374,-2.5"/>
<text text-anchor="middle" x="404.5" y="-9.5" font-family="Helvetica,sans-Serif" font-size="10.00">reduce_all</text>
</a>
</g>
</g>
<!-- Node1&#45;&gt;Node5 -->
<g id="edge9" class="edge"><title>Node1&#45;&gt;Node5</title>
<path fill="none" stroke="midnightblue" d="M93.5657,-10.2829C170.152,-10.7072 312.324,-11.4949 373.85,-11.8357"/>
<polygon fill="midnightblue" stroke="midnightblue" points="93.2288,-6.78109 83.2096,-10.2255 93.19,-13.781 93.2288,-6.78109"/>
</g>
<!-- Node3&#45;&gt;Node4 -->
<g id="edge3" class="edge"><title>Node3&#45;&gt;Node4</title>
<path fill="none" stroke="midnightblue" d="M220.273,-44.9344C242.61,-39.4046 271.918,-34.0085 291.661,-31.9206"/>
<polygon fill="midnightblue" stroke="midnightblue" points="219.35,-41.558 210.56,-47.4731 221.12,-48.3305 219.35,-41.558"/>
</g>
<!-- Node4&#45;&gt;Node1 -->
<g id="edge4" class="edge"><title>Node4&#45;&gt;Node1</title>
<path fill="none" stroke="midnightblue" d="M281.59,-34.8327C232.193,-33.4304 137.271,-25.5215 83.0714,-18.4258"/>
<polygon fill="midnightblue" stroke="midnightblue" points="281.626,-38.334 291.694,-35.0334 281.765,-31.3354 281.626,-38.334"/>
</g>
<!-- Node4&#45;&gt;Node2 -->
<g id="edge5" class="edge"><title>Node4&#45;&gt;Node2</title>
<path fill="none" stroke="midnightblue" d="M347.027,-40.5235C355.38,-42.5168 364.387,-44.6662 372.701,-46.6501"/>
<polygon fill="midnightblue" stroke="midnightblue" points="347.792,-37.1079 337.253,-38.191 346.167,-43.9167 347.792,-37.1079"/>
</g>
<!-- Node4&#45;&gt;Node3 -->
<g id="edge7" class="edge"><title>Node4&#45;&gt;Node3</title>
<path fill="none" stroke="midnightblue" d="M282.046,-44.9867C274.057,-46.9707 265.161,-48.9394 256.122,-50.7464"/>
<polygon fill="midnightblue" stroke="midnightblue" points="283.178,-48.308 291.961,-42.3821 281.399,-41.5377 283.178,-48.308"/>
</g>
<!-- Node4&#45;&gt;Node5 -->
<g id="edge6" class="edge"><title>Node4&#45;&gt;Node5</title>
<path fill="none" stroke="midnightblue" d="M347.035,-25.4746C355.721,-23.4017 365.114,-21.1602 373.7,-19.1115"/>
<polygon fill="midnightblue" stroke="midnightblue" points="346.167,-22.0833 337.253,-27.809 347.792,-28.8921 346.167,-22.0833"/>
</g>
</g>
</svg>
