<?xml version="1.0" encoding="UTF-8" standalone="no"?>
<!DOCTYPE svg PUBLIC "-//W3C//DTD SVG 1.1//EN"
 "http://www.w3.org/Graphics/SVG/1.1/DTD/svg11.dtd">
<!-- Generated by graphviz version 2.38.0 (20140413.2041)
 -->
<!-- Title: createDivs Pages: 1 -->
<svg width="246pt" height="47pt"
 viewBox="0.00 0.00 246.00 47.00" xmlns="http://www.w3.org/2000/svg" xmlns:xlink="http://www.w3.org/1999/xlink">
<g id="graph0" class="graph" transform="scale(1 1) rotate(0) translate(4 43)">
<title>createDivs</title>
<polygon fill="white" stroke="none" points="-4,4 -4,-43 242,-43 242,4 -4,4"/>
<!-- Node1 -->
<g id="node1" class="node"><title>Node1</title>
<polygon fill="#bfbfbf" stroke="black" points="0,-0.5 0,-19.5 62,-19.5 62,-0.5 0,-0.5"/>
<text text-anchor="middle" x="31" y="-7.5" font-family="Helvetica,sans-Serif" font-size="10.00">createDivs</text>
</g>
<!-- Node2 -->
<g id="node2" class="node"><title>Node2</title>
<g id="a_node2"><a xlink:href="graph_8js.html#a330fee2505037114678ec4c4fee6ec76" target="_top" xlink:title="Creates the header table cells. ">
<polygon fill="white" stroke="red" points="98,-19.5 98,-38.5 157,-38.5 157,-19.5 98,-19.5"/>
<text text-anchor="middle" x="127.5" y="-26.5" font-family="Helvetica,sans-Serif" font-size="10.00">createTds</text>
</a>
</g>
</g>
<!-- Node1&#45;&gt;Node2 -->
<g id="edge1" class="edge"><title>Node1&#45;&gt;Node2</title>
<path fill="none" stroke="midnightblue" d="M62.1602,-16.064C70.3909,-17.7188 79.4211,-19.5344 88.046,-21.2685"/>
<polygon fill="midnightblue" stroke="midnightblue" points="87.4188,-24.7124 97.9125,-23.2522 88.7986,-17.8497 87.4188,-24.7124"/>
</g>
<!-- Node3 -->
<g id="node3" class="node"><title>Node3</title>
<g id="a_node3"><a xlink:href="graph_8js.html#a5c1c7770c4c44dde3dcba63aa2a48056" target="_top" xlink:title="Gets a list of all courses. ">
<polygon fill="white" stroke="red" points="193,-0.5 193,-19.5 238,-19.5 238,-0.5 193,-0.5"/>
<text text-anchor="middle" x="215.5" y="-7.5" font-family="Helvetica,sans-Serif" font-size="10.00">jQuery</text>
</a>
</g>
</g>
<!-- Node1&#45;&gt;Node3 -->
<g id="edge3" class="edge"><title>Node1&#45;&gt;Node3</title>
<path fill="none" stroke="midnightblue" d="M62.1362,-10C95.3889,-10 148.681,-10 182.617,-10"/>
<polygon fill="midnightblue" stroke="midnightblue" points="182.905,-13.5001 192.905,-10 182.904,-6.5001 182.905,-13.5001"/>
</g>
<!-- Node2&#45;&gt;Node3 -->
<g id="edge2" class="edge"><title>Node2&#45;&gt;Node3</title>
<path fill="none" stroke="midnightblue" d="M157.137,-22.6733C165.404,-20.8467 174.472,-18.8433 182.909,-16.9795"/>
<polygon fill="midnightblue" stroke="midnightblue" points="183.78,-20.3714 192.79,-14.7964 182.27,-13.5362 183.78,-20.3714"/>
</g>
</g>
</svg>
