<?xml version="1.0" encoding="UTF-8" standalone="no"?>
<!DOCTYPE svg PUBLIC "-//W3C//DTD SVG 1.1//EN"
 "http://www.w3.org/Graphics/SVG/1.1/DTD/svg11.dtd">
<!-- Generated by graphviz version 2.38.0 (20140413.2041)
 -->
<!-- Title: reduce_all Pages: 1 -->
<svg width="269pt" height="47pt"
 viewBox="0.00 0.00 269.00 47.00" xmlns="http://www.w3.org/2000/svg" xmlns:xlink="http://www.w3.org/1999/xlink">
<g id="graph0" class="graph" transform="scale(1 1) rotate(0) translate(4 43)">
<title>reduce_all</title>
<polygon fill="white" stroke="none" points="-4,4 -4,-43 265,-43 265,4 -4,4"/>
<!-- Node1 -->
<g id="node1" class="node"><title>Node1</title>
<polygon fill="#bfbfbf" stroke="black" points="0,-0.5 0,-19.5 61,-19.5 61,-0.5 0,-0.5"/>
<text text-anchor="middle" x="30.5" y="-7.5" font-family="Helvetica,sans-Serif" font-size="10.00">reduce_all</text>
</g>
<!-- Node2 -->
<g id="node2" class="node"><title>Node2</title>
<g id="a_node2"><a xlink:href="graph_8js.html#ac6ee0322be8a49fdf390d82d6bf998cf" target="_top" xlink:title="Toggles the expansion/reduction of a course &lt;div&gt; ">
<polygon fill="white" stroke="black" points="97,-19.5 97,-38.5 180,-38.5 180,-19.5 97,-19.5"/>
<text text-anchor="middle" x="138.5" y="-26.5" font-family="Helvetica,sans-Serif" font-size="10.00">expand_reduce</text>
</a>
</g>
</g>
<!-- Node1&#45;&gt;Node2 -->
<g id="edge1" class="edge"><title>Node1&#45;&gt;Node2</title>
<path fill="none" stroke="midnightblue" d="M61.0269,-15.2926C69.0384,-16.7286 77.9467,-18.3253 86.7708,-19.907"/>
<polygon fill="midnightblue" stroke="midnightblue" points="86.1849,-23.3577 96.6456,-21.677 87.42,-16.4675 86.1849,-23.3577"/>
</g>
<!-- Node3 -->
<g id="node3" class="node"><title>Node3</title>
<g id="a_node3"><a xlink:href="graph_8js.html#a5c1c7770c4c44dde3dcba63aa2a48056" target="_top" xlink:title="Gets a list of all courses. ">
<polygon fill="white" stroke="red" points="216,-19.5 216,-38.5 261,-38.5 261,-19.5 216,-19.5"/>
<text text-anchor="middle" x="238.5" y="-26.5" font-family="Helvetica,sans-Serif" font-size="10.00">jQuery</text>
</a>
</g>
</g>
<!-- Node1&#45;&gt;Node3 -->
<g id="edge4" class="edge"><title>Node1&#45;&gt;Node3</title>
<path fill="none" stroke="midnightblue" d="M61.023,-7.25506C91.1487,-5.09455 139.147,-3.42516 180,-10 188.729,-11.4048 197.928,-13.9369 206.346,-16.7041"/>
<polygon fill="midnightblue" stroke="midnightblue" points="205.199,-20.011 215.794,-20.0071 207.509,-13.4031 205.199,-20.011"/>
</g>
<!-- Node2&#45;&gt;Node3 -->
<g id="edge2" class="edge"><title>Node2&#45;&gt;Node3</title>
<path fill="none" stroke="midnightblue" d="M180.209,-22.3366C188.693,-22.1578 197.517,-22.2558 205.626,-22.6307"/>
<polygon fill="midnightblue" stroke="midnightblue" points="205.581,-26.1349 215.785,-23.2829 206.03,-19.1493 205.581,-26.1349"/>
</g>
<!-- Node3&#45;&gt;Node2 -->
<g id="edge3" class="edge"><title>Node3&#45;&gt;Node2</title>
<path fill="none" stroke="midnightblue" d="M215.785,-34.7171C208.179,-35.3623 199.286,-35.7052 190.312,-35.7459"/>
<polygon fill="midnightblue" stroke="midnightblue" points="190.238,-32.2453 180.209,-35.6634 190.18,-39.245 190.238,-32.2453"/>
</g>
</g>
</svg>
