<?xml version="1.0" encoding="UTF-8" standalone="no"?>
<!DOCTYPE svg PUBLIC "-//W3C//DTD SVG 1.1//EN"
 "http://www.w3.org/Graphics/SVG/1.1/DTD/svg11.dtd">
<!-- Generated by graphviz version 2.38.0 (20140413.2041)
 -->
<!-- Title: showVoraussetzungen Pages: 1 -->
<svg width="204pt" height="28pt"
 viewBox="0.00 0.00 204.00 28.00" xmlns="http://www.w3.org/2000/svg" xmlns:xlink="http://www.w3.org/1999/xlink">
<g id="graph0" class="graph" transform="scale(1 1) rotate(0) translate(4 24)">
<title>showVoraussetzungen</title>
<polygon fill="white" stroke="none" points="-4,4 -4,-24 200,-24 200,4 -4,4"/>
<!-- Node1 -->
<g id="node1" class="node"><title>Node1</title>
<polygon fill="#bfbfbf" stroke="black" points="0,-0.5 0,-19.5 115,-19.5 115,-0.5 0,-0.5"/>
<text text-anchor="middle" x="57.5" y="-7.5" font-family="Helvetica,sans-Serif" font-size="10.00">showVoraussetzungen</text>
</g>
<!-- Node2 -->
<g id="node2" class="node"><title>Node2</title>
<g id="a_node2"><a xlink:href="graph_8js.html#a5c1c7770c4c44dde3dcba63aa2a48056" target="_top" xlink:title="Gets a list of all courses. ">
<polygon fill="white" stroke="red" points="151,-0.5 151,-19.5 196,-19.5 196,-0.5 151,-0.5"/>
<text text-anchor="middle" x="173.5" y="-7.5" font-family="Helvetica,sans-Serif" font-size="10.00">jQuery</text>
</a>
</g>
</g>
<!-- Node1&#45;&gt;Node2 -->
<g id="edge1" class="edge"><title>Node1&#45;&gt;Node2</title>
<path fill="none" stroke="midnightblue" d="M125.276,-3.33902C134.509,-3.50869 143.39,-3.92086 150.909,-4.57555"/>
<polygon fill="midnightblue" stroke="midnightblue" points="125.196,0.161712 115.166,-3.2501 125.135,-6.83802 125.196,0.161712"/>
</g>
<!-- Node2&#45;&gt;Node1 -->
<g id="edge2" class="edge"><title>Node2&#45;&gt;Node1</title>
<path fill="none" stroke="midnightblue" d="M140.919,-16.1141C132.894,-16.5434 124.025,-16.7554 115.166,-16.7499"/>
<polygon fill="midnightblue" stroke="midnightblue" points="141.174,-19.6049 150.909,-15.4244 140.691,-12.6215 141.174,-19.6049"/>
</g>
</g>
</svg>
