<?xml version="1.0" encoding="UTF-8" standalone="no"?>
<!DOCTYPE svg PUBLIC "-//W3C//DTD SVG 1.1//EN"
 "http://www.w3.org/Graphics/SVG/1.1/DTD/svg11.dtd">
<!-- Generated by graphviz version 2.38.0 (20140413.2041)
 -->
<!-- Title: addResources Pages: 1 -->
<svg width="168pt" height="28pt"
 viewBox="0.00 0.00 168.00 28.00" xmlns="http://www.w3.org/2000/svg" xmlns:xlink="http://www.w3.org/1999/xlink">
<g id="graph0" class="graph" transform="scale(1 1) rotate(0) translate(4 24)">
<title>addResources</title>
<polygon fill="white" stroke="none" points="-4,4 -4,-24 164,-24 164,4 -4,4"/>
<!-- Node1 -->
<g id="node1" class="node"><title>Node1</title>
<polygon fill="#bfbfbf" stroke="black" points="0,-0.5 0,-19.5 79,-19.5 79,-0.5 0,-0.5"/>
<text text-anchor="middle" x="39.5" y="-7.5" font-family="Helvetica,sans-Serif" font-size="10.00">addResources</text>
</g>
<!-- Node2 -->
<g id="node2" class="node"><title>Node2</title>
<g id="a_node2"><a xlink:href="graph_8js.html#a5c1c7770c4c44dde3dcba63aa2a48056" target="_top" xlink:title="Gets a list of all courses. ">
<polygon fill="white" stroke="red" points="115,-0.5 115,-19.5 160,-19.5 160,-0.5 115,-0.5"/>
<text text-anchor="middle" x="137.5" y="-7.5" font-family="Helvetica,sans-Serif" font-size="10.00">jQuery</text>
</a>
</g>
</g>
<!-- Node1&#45;&gt;Node2 -->
<g id="edge1" class="edge"><title>Node1&#45;&gt;Node2</title>
<path fill="none" stroke="midnightblue" d="M89.3764,-3.251C98.3718,-3.27153 107.326,-3.60825 114.975,-4.26115"/>
<polygon fill="midnightblue" stroke="midnightblue" points="89.231,0.247711 79.2702,-3.36216 89.3081,-6.75187 89.231,0.247711"/>
</g>
<!-- Node2&#45;&gt;Node1 -->
<g id="edge2" class="edge"><title>Node2&#45;&gt;Node1</title>
<path fill="none" stroke="midnightblue" d="M104.757,-16.3934C96.6019,-16.7645 87.7369,-16.8459 79.2702,-16.6378"/>
<polygon fill="midnightblue" stroke="midnightblue" points="105.22,-19.8711 114.975,-15.7389 104.772,-12.8854 105.22,-19.8711"/>
</g>
</g>
</svg>
