<?xml version="1.0" encoding="UTF-8" standalone="no"?>
<!DOCTYPE svg PUBLIC "-//W3C//DTD SVG 1.1//EN"
 "http://www.w3.org/Graphics/SVG/1.1/DTD/svg11.dtd">
<!-- Generated by graphviz version 2.38.0 (20140413.2041)
 -->
<!-- Title: expandAndScrollToElement Pages: 1 -->
<svg width="345pt" height="122pt"
 viewBox="0.00 0.00 345.00 122.00" xmlns="http://www.w3.org/2000/svg" xmlns:xlink="http://www.w3.org/1999/xlink">
<g id="graph0" class="graph" transform="scale(1 1) rotate(0) translate(4 118)">
<title>expandAndScrollToElement</title>
<polygon fill="white" stroke="none" points="-4,4 -4,-118 341,-118 341,4 -4,4"/>
<!-- Node1 -->
<g id="node1" class="node"><title>Node1</title>
<polygon fill="#bfbfbf" stroke="black" points="0,-47.5 0,-66.5 137,-66.5 137,-47.5 0,-47.5"/>
<text text-anchor="middle" x="68.5" y="-54.5" font-family="Helvetica,sans-Serif" font-size="10.00">expandAndScrollToElement</text>
</g>
<!-- Node2 -->
<g id="node2" class="node"><title>Node2</title>
<g id="a_node2"><a xlink:href="graph_8js.html#ac6ee0322be8a49fdf390d82d6bf998cf" target="_top" xlink:title="Toggles the expansion/reduction of a course &lt;div&gt; ">
<polygon fill="white" stroke="black" points="173,-94.5 173,-113.5 256,-113.5 256,-94.5 173,-94.5"/>
<text text-anchor="middle" x="214.5" y="-101.5" font-family="Helvetica,sans-Serif" font-size="10.00">expand_reduce</text>
</a>
</g>
</g>
<!-- Node1&#45;&gt;Node2 -->
<g id="edge1" class="edge"><title>Node1&#45;&gt;Node2</title>
<path fill="none" stroke="midnightblue" d="M98.6405,-66.5112C120.357,-73.5992 150.253,-83.3568 174.1,-91.1403"/>
<polygon fill="midnightblue" stroke="midnightblue" points="173.316,-94.5661 183.909,-94.3417 175.488,-87.9116 173.316,-94.5661"/>
</g>
<!-- Node3 -->
<g id="node3" class="node"><title>Node3</title>
<g id="a_node3"><a xlink:href="graph_8js.html#a5c1c7770c4c44dde3dcba63aa2a48056" target="_top" xlink:title="Gets a list of all courses. ">
<polygon fill="white" stroke="red" points="292,-47.5 292,-66.5 337,-66.5 337,-47.5 292,-47.5"/>
<text text-anchor="middle" x="314.5" y="-54.5" font-family="Helvetica,sans-Serif" font-size="10.00">jQuery</text>
</a>
</g>
</g>
<!-- Node1&#45;&gt;Node3 -->
<g id="edge7" class="edge"><title>Node1&#45;&gt;Node3</title>
<path fill="none" stroke="midnightblue" d="M137.144,-50.8847C184.382,-49.7052 245.287,-50.1697 281.762,-52.278"/>
<polygon fill="midnightblue" stroke="midnightblue" points="281.602,-55.775 291.813,-52.9504 282.069,-48.7906 281.602,-55.775"/>
</g>
<!-- Node4 -->
<g id="node4" class="node"><title>Node4</title>
<g id="a_node4"><a xlink:href="graph_8js.html#a0726fbe63d87bbdd3a3e383db303150a" target="_top" xlink:title="Checks if an element is fully visible. ">
<polygon fill="white" stroke="black" points="177.5,-0.5 177.5,-19.5 251.5,-19.5 251.5,-0.5 177.5,-0.5"/>
<text text-anchor="middle" x="214.5" y="-7.5" font-family="Helvetica,sans-Serif" font-size="10.00">isFullyVisible</text>
</a>
</g>
</g>
<!-- Node1&#45;&gt;Node4 -->
<g id="edge5" class="edge"><title>Node1&#45;&gt;Node4</title>
<path fill="none" stroke="midnightblue" d="M98.6405,-47.4888C120.357,-40.4008 150.253,-30.6432 174.1,-22.8597"/>
<polygon fill="midnightblue" stroke="midnightblue" points="175.488,-26.0884 183.909,-19.6583 173.316,-19.4339 175.488,-26.0884"/>
</g>
<!-- Node2&#45;&gt;Node3 -->
<g id="edge2" class="edge"><title>Node2&#45;&gt;Node3</title>
<path fill="none" stroke="midnightblue" d="M226.362,-94.358C239.834,-85.6892 263.371,-73.7707 282.59,-65.5011"/>
<polygon fill="midnightblue" stroke="midnightblue" points="283.987,-68.7107 291.891,-61.6553 281.313,-62.2417 283.987,-68.7107"/>
</g>
<!-- Node3&#45;&gt;Node1 -->
<g id="edge4" class="edge"><title>Node3&#45;&gt;Node1</title>
<path fill="none" stroke="midnightblue" d="M291.813,-61.0496C259.659,-63.5504 197.721,-64.3142 147.371,-63.3412"/>
<polygon fill="midnightblue" stroke="midnightblue" points="147.218,-59.837 137.144,-63.1153 147.064,-66.8353 147.218,-59.837"/>
</g>
<!-- Node3&#45;&gt;Node2 -->
<g id="edge3" class="edge"><title>Node3&#45;&gt;Node2</title>
<path fill="none" stroke="midnightblue" d="M302.466,-66.7521C291.677,-73.6733 274.55,-82.6346 258.337,-90.158"/>
<polygon fill="midnightblue" stroke="midnightblue" points="256.626,-87.0903 248.952,-94.3952 259.506,-93.4702 256.626,-87.0903"/>
</g>
<!-- Node4&#45;&gt;Node3 -->
<g id="edge6" class="edge"><title>Node4&#45;&gt;Node3</title>
<path fill="none" stroke="midnightblue" d="M235.332,-19.5112C249.319,-26.2195 268.293,-35.319 284.044,-42.8731"/>
<polygon fill="midnightblue" stroke="midnightblue" points="282.831,-46.1731 293.361,-47.3417 285.858,-39.8615 282.831,-46.1731"/>
</g>
</g>
</svg>
