<?xml version="1.0" encoding="UTF-8" standalone="no"?>
<!DOCTYPE svg PUBLIC "-//W3C//DTD SVG 1.1//EN"
 "http://www.w3.org/Graphics/SVG/1.1/DTD/svg11.dtd">
<!-- Generated by graphviz version 2.38.0 (20140413.2041)
 -->
<!-- Title: stukowin_uninstall Pages: 1 -->
<svg width="241pt" height="137pt"
 viewBox="0.00 0.00 241.00 137.00" xmlns="http://www.w3.org/2000/svg" xmlns:xlink="http://www.w3.org/1999/xlink">
<g id="graph0" class="graph" transform="scale(1 1) rotate(0) translate(4 133)">
<title>stukowin_uninstall</title>
<polygon fill="white" stroke="none" points="-4,4 -4,-133 237,-133 237,4 -4,4"/>
<!-- Node1 -->
<g id="node1" class="node"><title>Node1</title>
<polygon fill="#bfbfbf" stroke="black" points="0,-55 0,-74 96,-74 96,-55 0,-55"/>
<text text-anchor="middle" x="48" y="-62" font-family="Helvetica,sans-Serif" font-size="10.00">stukowin_uninstall</text>
</g>
<!-- Node2 -->
<g id="node2" class="node"><title>Node2</title>
<g id="a_node2"><a xlink:href="group___stukowin___module.html#ga5eda7b9b561e8a5ad87df0bb50cf80b0" target="_top" xlink:title="Contains the array of additional fields for the stukowin content node type. ">
<polygon fill="white" stroke="black" points="132,-98.5 132,-128.5 233,-128.5 233,-98.5 132,-98.5"/>
<text text-anchor="start" x="140" y="-116.5" font-family="Helvetica,sans-Serif" font-size="10.00">_stukowin_installed</text>
<text text-anchor="middle" x="182.5" y="-105.5" font-family="Helvetica,sans-Serif" font-size="10.00">_fields</text>
</a>
</g>
</g>
<!-- Node1&#45;&gt;Node2 -->
<g id="edge1" class="edge"><title>Node1&#45;&gt;Node2</title>
<path fill="none" stroke="midnightblue" d="M74.8619,-74.064C90.9043,-79.9967 112.056,-87.8188 131.289,-94.9313"/>
<polygon fill="midnightblue" stroke="midnightblue" points="130.246,-98.2772 140.839,-98.463 132.674,-91.7117 130.246,-98.2772"/>
</g>
<!-- Node3 -->
<g id="node3" class="node"><title>Node3</title>
<g id="a_node3"><a xlink:href="group___stukowin___module.html#ga0dbd0252e3db9efdb3cfefbefecf3d2e" target="_top" xlink:title="Contains the array of additional vocabulary fields. ">
<polygon fill="white" stroke="black" points="132,-49.5 132,-79.5 233,-79.5 233,-49.5 132,-49.5"/>
<text text-anchor="start" x="140" y="-67.5" font-family="Helvetica,sans-Serif" font-size="10.00">_stukowin_installed</text>
<text text-anchor="middle" x="182.5" y="-56.5" font-family="Helvetica,sans-Serif" font-size="10.00">_taxonomy_fields</text>
</a>
</g>
</g>
<!-- Node1&#45;&gt;Node3 -->
<g id="edge2" class="edge"><title>Node1&#45;&gt;Node3</title>
<path fill="none" stroke="midnightblue" d="M96.0876,-64.5C104.428,-64.5 113.211,-64.5 121.844,-64.5"/>
<polygon fill="midnightblue" stroke="midnightblue" points="121.873,-68.0001 131.873,-64.5 121.873,-61.0001 121.873,-68.0001"/>
</g>
<!-- Node4 -->
<g id="node4" class="node"><title>Node4</title>
<g id="a_node4"><a xlink:href="group___stukowin___module.html#gae7b4c9b6b19887d0ccc914b2886010ce" target="_top" xlink:title="Contains custom relation types for recommendations and requirements. ">
<polygon fill="white" stroke="black" points="134,-0.5 134,-30.5 231,-30.5 231,-0.5 134,-0.5"/>
<text text-anchor="start" x="142" y="-18.5" font-family="Helvetica,sans-Serif" font-size="10.00">_stukowin_relation</text>
<text text-anchor="middle" x="182.5" y="-7.5" font-family="Helvetica,sans-Serif" font-size="10.00">_types</text>
</a>
</g>
</g>
<!-- Node1&#45;&gt;Node4 -->
<g id="edge3" class="edge"><title>Node1&#45;&gt;Node4</title>
<path fill="none" stroke="midnightblue" d="M74.8619,-54.936C90.9043,-49.0033 112.056,-41.1812 131.289,-34.0687"/>
<polygon fill="midnightblue" stroke="midnightblue" points="132.674,-37.2883 140.839,-30.537 130.246,-30.7228 132.674,-37.2883"/>
</g>
</g>
</svg>
