<?xml version="1.0" encoding="UTF-8" standalone="no"?>
<!DOCTYPE svg PUBLIC "-//W3C//DTD SVG 1.1//EN"
 "http://www.w3.org/Graphics/SVG/1.1/DTD/svg11.dtd">
<!-- Generated by graphviz version 2.38.0 (20140413.2041)
 -->
<!-- Title: _stukowin_installed_fields Pages: 1 -->
<svg width="282pt" height="165pt"
 viewBox="0.00 0.00 282.00 165.00" xmlns="http://www.w3.org/2000/svg" xmlns:xlink="http://www.w3.org/1999/xlink">
<g id="graph0" class="graph" transform="scale(1 1) rotate(0) translate(4 161)">
<title>_stukowin_installed_fields</title>
<polygon fill="white" stroke="none" points="-4,4 -4,-161 278,-161 278,4 -4,4"/>
<!-- Node1 -->
<g id="node1" class="node"><title>Node1</title>
<polygon fill="#bfbfbf" stroke="black" points="0,-63.5 0,-93.5 101,-93.5 101,-63.5 0,-63.5"/>
<text text-anchor="start" x="8" y="-81.5" font-family="Helvetica,sans-Serif" font-size="10.00">_stukowin_installed</text>
<text text-anchor="middle" x="50.5" y="-70.5" font-family="Helvetica,sans-Serif" font-size="10.00">_fields</text>
</g>
<!-- Node2 -->
<g id="node2" class="node"><title>Node2</title>
<g id="a_node2"><a xlink:href="classcontent__manager.html#a6732db58443e8a0948bcc7705f654c7a" target="_top" xlink:title="Gets course details. ">
<polygon fill="white" stroke="black" points="151.5,-126.5 151.5,-156.5 259.5,-156.5 259.5,-126.5 151.5,-126.5"/>
<text text-anchor="start" x="159.5" y="-144.5" font-family="Helvetica,sans-Serif" font-size="10.00">content_manager\get</text>
<text text-anchor="middle" x="205.5" y="-133.5" font-family="Helvetica,sans-Serif" font-size="10.00">_return_node</text>
</a>
</g>
</g>
<!-- Node1&#45;&gt;Node2 -->
<g id="edge1" class="edge"><title>Node1&#45;&gt;Node2</title>
<path fill="none" stroke="midnightblue" d="M93.4285,-97.7711C107.227,-103.942 122.697,-110.68 137,-116.5 145.218,-119.844 154.07,-123.256 162.572,-126.442"/>
<polygon fill="midnightblue" stroke="midnightblue" points="94.7333,-94.5202 84.1778,-93.6076 91.8603,-100.903 94.7333,-94.5202"/>
</g>
<!-- Node3 -->
<g id="node3" class="node"><title>Node3</title>
<g id="a_node3"><a xlink:href="group___stukowin___module.html#ga67989d3a763f2efa2fc0b07460639558" target="_top" xlink:title="Implements hook_install(). ">
<polygon fill="white" stroke="black" points="162.5,-88 162.5,-107 248.5,-107 248.5,-88 162.5,-88"/>
<text text-anchor="middle" x="205.5" y="-95" font-family="Helvetica,sans-Serif" font-size="10.00">stukowin_install</text>
</a>
</g>
</g>
<!-- Node1&#45;&gt;Node3 -->
<g id="edge2" class="edge"><title>Node1&#45;&gt;Node3</title>
<path fill="none" stroke="midnightblue" d="M111.552,-85.9575C128.505,-88.0627 146.589,-90.3085 162.257,-92.2541"/>
<polygon fill="midnightblue" stroke="midnightblue" points="111.53,-82.4279 101.175,-84.6688 110.667,-89.3745 111.53,-82.4279"/>
</g>
<!-- Node4 -->
<g id="node4" class="node"><title>Node4</title>
<g id="a_node4"><a xlink:href="group___stukowin___module.html#gad831696eae7eb1a0e48c4e9621323bca" target="_top" xlink:title="Implements hook_uninstall(). ">
<polygon fill="white" stroke="black" points="157.5,-50 157.5,-69 253.5,-69 253.5,-50 157.5,-50"/>
<text text-anchor="middle" x="205.5" y="-57" font-family="Helvetica,sans-Serif" font-size="10.00">stukowin_uninstall</text>
</a>
</g>
</g>
<!-- Node1&#45;&gt;Node4 -->
<g id="edge3" class="edge"><title>Node1&#45;&gt;Node4</title>
<path fill="none" stroke="midnightblue" d="M111.105,-71.0981C126.467,-69.1903 142.787,-67.1637 157.414,-65.3473"/>
<polygon fill="midnightblue" stroke="midnightblue" points="110.667,-67.6255 101.175,-72.3312 111.53,-74.5721 110.667,-67.6255"/>
</g>
<!-- Node5 -->
<g id="node5" class="node"><title>Node5</title>
<g id="a_node5"><a xlink:href="classcontent__manager.html#acfeb4c387a22e750487e1bee5c73c1f9" target="_top" xlink:title="Gets vocabulary tree. ">
<polygon fill="white" stroke="black" points="137,-0.5 137,-30.5 274,-30.5 274,-0.5 137,-0.5"/>
<text text-anchor="start" x="145" y="-18.5" font-family="Helvetica,sans-Serif" font-size="10.00">content_manager\taxonomy</text>
<text text-anchor="middle" x="205.5" y="-7.5" font-family="Helvetica,sans-Serif" font-size="10.00">_get_nested_tree</text>
</a>
</g>
</g>
<!-- Node1&#45;&gt;Node5 -->
<g id="edge4" class="edge"><title>Node1&#45;&gt;Node5</title>
<path fill="none" stroke="midnightblue" d="M93.4285,-59.2289C107.227,-53.0578 122.697,-46.3202 137,-40.5 145.218,-37.1558 154.07,-33.7435 162.572,-30.5583"/>
<polygon fill="midnightblue" stroke="midnightblue" points="91.8603,-56.0965 84.1778,-63.3924 94.7333,-62.4798 91.8603,-56.0965"/>
</g>
</g>
</svg>
