<?xml version="1.0" encoding="UTF-8" standalone="no"?>
<!DOCTYPE svg PUBLIC "-//W3C//DTD SVG 1.1//EN"
 "http://www.w3.org/Graphics/SVG/1.1/DTD/svg11.dtd">
<!-- Generated by graphviz version 2.38.0 (20140413.2041)
 -->
<!-- Title: _stukowin_relation_types Pages: 1 -->
<svg width="270pt" height="78pt"
 viewBox="0.00 0.00 270.00 77.50" xmlns="http://www.w3.org/2000/svg" xmlns:xlink="http://www.w3.org/1999/xlink">
<g id="graph0" class="graph" transform="scale(1 1) rotate(0) translate(4 73.5)">
<title>_stukowin_relation_types</title>
<polygon fill="white" stroke="none" points="-4,4 -4,-73.5 266,-73.5 266,4 -4,4"/>
<!-- Node1 -->
<g id="node1" class="node"><title>Node1</title>
<polygon fill="#bfbfbf" stroke="black" points="0,-17 0,-47 97,-47 97,-17 0,-17"/>
<text text-anchor="start" x="8" y="-35" font-family="Helvetica,sans-Serif" font-size="10.00">_stukowin_relation</text>
<text text-anchor="middle" x="48.5" y="-24" font-family="Helvetica,sans-Serif" font-size="10.00">_types</text>
</g>
<!-- Node2 -->
<g id="node2" class="node"><title>Node2</title>
<g id="a_node2"><a xlink:href="group___stukowin___module.html#gac59bc3fe951ab5625be92cfbff7e3dc4" target="_top" xlink:title="Creates the relation type. ">
<polygon fill="white" stroke="red" points="133,-39 133,-69 262,-69 262,-39 133,-39"/>
<text text-anchor="start" x="141" y="-57" font-family="Helvetica,sans-Serif" font-size="10.00">_stukowin_create_relation</text>
<text text-anchor="middle" x="197.5" y="-46" font-family="Helvetica,sans-Serif" font-size="10.00">_types</text>
</a>
</g>
</g>
<!-- Node1&#45;&gt;Node2 -->
<g id="edge1" class="edge"><title>Node1&#45;&gt;Node2</title>
<path fill="none" stroke="midnightblue" d="M107.32,-40.6533C115.737,-41.913 124.442,-43.2159 132.965,-44.4914"/>
<polygon fill="midnightblue" stroke="midnightblue" points="107.635,-37.1615 97.2267,-39.1428 106.598,-44.0844 107.635,-37.1615"/>
</g>
<!-- Node3 -->
<g id="node3" class="node"><title>Node3</title>
<g id="a_node3"><a xlink:href="group___stukowin___module.html#gad831696eae7eb1a0e48c4e9621323bca" target="_top" xlink:title="Implements hook_uninstall(). ">
<polygon fill="white" stroke="black" points="149.5,-0.5 149.5,-19.5 245.5,-19.5 245.5,-0.5 149.5,-0.5"/>
<text text-anchor="middle" x="197.5" y="-7.5" font-family="Helvetica,sans-Serif" font-size="10.00">stukowin_uninstall</text>
</a>
</g>
</g>
<!-- Node1&#45;&gt;Node3 -->
<g id="edge2" class="edge"><title>Node1&#45;&gt;Node3</title>
<path fill="none" stroke="midnightblue" d="M107.203,-23.3641C121.14,-21.2784 135.872,-19.0736 149.264,-17.0694"/>
<polygon fill="midnightblue" stroke="midnightblue" points="106.598,-19.9156 97.2267,-24.8572 107.635,-26.8385 106.598,-19.9156"/>
</g>
</g>
</svg>
