<?xml version="1.0" encoding="UTF-8" standalone="no"?>
<!DOCTYPE svg PUBLIC "-//W3C//DTD SVG 1.1//EN"
 "http://www.w3.org/Graphics/SVG/1.1/DTD/svg11.dtd">
<!-- Generated by graphviz version 2.38.0 (20140413.2041)
 -->
<!-- Title: stukowin_install Pages: 1 -->
<svg width="259pt" height="235pt"
 viewBox="0.00 0.00 259.00 235.00" xmlns="http://www.w3.org/2000/svg" xmlns:xlink="http://www.w3.org/1999/xlink">
<g id="graph0" class="graph" transform="scale(1 1) rotate(0) translate(4 231)">
<title>stukowin_install</title>
<polygon fill="white" stroke="none" points="-4,4 -4,-231 255,-231 255,4 -4,4"/>
<!-- Node1 -->
<g id="node1" class="node"><title>Node1</title>
<polygon fill="#bfbfbf" stroke="black" points="0,-104 0,-123 86,-123 86,-104 0,-104"/>
<text text-anchor="middle" x="43" y="-111" font-family="Helvetica,sans-Serif" font-size="10.00">stukowin_install</text>
</g>
<!-- Node2 -->
<g id="node2" class="node"><title>Node2</title>
<g id="a_node2"><a xlink:href="group___stukowin___module.html#gac59bc3fe951ab5625be92cfbff7e3dc4" target="_top" xlink:title="Creates the relation type. ">
<polygon fill="white" stroke="red" points="122,-196.5 122,-226.5 251,-226.5 251,-196.5 122,-196.5"/>
<text text-anchor="start" x="130" y="-214.5" font-family="Helvetica,sans-Serif" font-size="10.00">_stukowin_create_relation</text>
<text text-anchor="middle" x="186.5" y="-203.5" font-family="Helvetica,sans-Serif" font-size="10.00">_types</text>
</a>
</g>
</g>
<!-- Node1&#45;&gt;Node2 -->
<g id="edge1" class="edge"><title>Node1&#45;&gt;Node2</title>
<path fill="none" stroke="midnightblue" d="M52.1347,-123.437C65.3388,-139.006 92.9044,-169.249 122,-187.5 124.48,-189.056 127.077,-190.536 129.745,-191.94"/>
<polygon fill="midnightblue" stroke="midnightblue" points="128.493,-195.222 139.02,-196.421 131.539,-188.919 128.493,-195.222"/>
</g>
<!-- Node3 -->
<g id="node3" class="node"><title>Node3</title>
<g id="a_node3"><a xlink:href="group___stukowin___module.html#ga5eda7b9b561e8a5ad87df0bb50cf80b0" target="_top" xlink:title="Contains the array of additional fields for the stukowin content node type. ">
<polygon fill="white" stroke="black" points="136,-147.5 136,-177.5 237,-177.5 237,-147.5 136,-147.5"/>
<text text-anchor="start" x="144" y="-165.5" font-family="Helvetica,sans-Serif" font-size="10.00">_stukowin_installed</text>
<text text-anchor="middle" x="186.5" y="-154.5" font-family="Helvetica,sans-Serif" font-size="10.00">_fields</text>
</a>
</g>
</g>
<!-- Node1&#45;&gt;Node3 -->
<g id="edge2" class="edge"><title>Node1&#45;&gt;Node3</title>
<path fill="none" stroke="midnightblue" d="M71.6185,-123.064C88.9071,-129.051 111.752,-136.962 132.44,-144.126"/>
<polygon fill="midnightblue" stroke="midnightblue" points="131.482,-147.498 142.077,-147.463 133.773,-140.883 131.482,-147.498"/>
</g>
<!-- Node4 -->
<g id="node4" class="node"><title>Node4</title>
<g id="a_node4"><a xlink:href="group___stukowin___module.html#ga473e908d001c086718d6675f19cb7ee7" target="_top" xlink:title="Contains the array of additional fields for the stukowin content node type. ">
<polygon fill="white" stroke="black" points="136,-98.5 136,-128.5 237,-128.5 237,-98.5 136,-98.5"/>
<text text-anchor="start" x="144" y="-116.5" font-family="Helvetica,sans-Serif" font-size="10.00">_stukowin_installed</text>
<text text-anchor="middle" x="186.5" y="-105.5" font-family="Helvetica,sans-Serif" font-size="10.00">_instances</text>
</a>
</g>
</g>
<!-- Node1&#45;&gt;Node4 -->
<g id="edge3" class="edge"><title>Node1&#45;&gt;Node4</title>
<path fill="none" stroke="midnightblue" d="M86.0716,-113.5C98.5358,-113.5 112.429,-113.5 125.785,-113.5"/>
<polygon fill="midnightblue" stroke="midnightblue" points="125.861,-117 135.861,-113.5 125.861,-110 125.861,-117"/>
</g>
<!-- Node5 -->
<g id="node5" class="node"><title>Node5</title>
<g id="a_node5"><a xlink:href="group___stukowin___module.html#ga0dbd0252e3db9efdb3cfefbefecf3d2e" target="_top" xlink:title="Contains the array of additional vocabulary fields. ">
<polygon fill="white" stroke="black" points="136,-49.5 136,-79.5 237,-79.5 237,-49.5 136,-49.5"/>
<text text-anchor="start" x="144" y="-67.5" font-family="Helvetica,sans-Serif" font-size="10.00">_stukowin_installed</text>
<text text-anchor="middle" x="186.5" y="-56.5" font-family="Helvetica,sans-Serif" font-size="10.00">_taxonomy_fields</text>
</a>
</g>
</g>
<!-- Node1&#45;&gt;Node5 -->
<g id="edge4" class="edge"><title>Node1&#45;&gt;Node5</title>
<path fill="none" stroke="midnightblue" d="M71.6185,-103.936C88.9071,-97.9491 111.752,-90.0382 132.44,-82.874"/>
<polygon fill="midnightblue" stroke="midnightblue" points="133.773,-86.1166 142.077,-79.537 131.482,-79.502 133.773,-86.1166"/>
</g>
<!-- Node6 -->
<g id="node6" class="node"><title>Node6</title>
<g id="a_node6"><a xlink:href="group___stukowin___module.html#gafd634a2fb5766e1053fa7df79ab11c79" target="_top" xlink:title="Contains the array of additional fields for vocabulary instances. ">
<polygon fill="white" stroke="black" points="130.5,-0.5 130.5,-30.5 242.5,-30.5 242.5,-0.5 130.5,-0.5"/>
<text text-anchor="start" x="138.5" y="-18.5" font-family="Helvetica,sans-Serif" font-size="10.00">_stukowin_installed</text>
<text text-anchor="middle" x="186.5" y="-7.5" font-family="Helvetica,sans-Serif" font-size="10.00">_taxonomy_instances</text>
</a>
</g>
</g>
<!-- Node1&#45;&gt;Node6 -->
<g id="edge5" class="edge"><title>Node1&#45;&gt;Node6</title>
<path fill="none" stroke="midnightblue" d="M52.1936,-103.752C65.4785,-88.4685 93.1528,-58.734 122,-40.5 125.086,-38.5495 128.349,-36.7063 131.701,-34.9729"/>
<polygon fill="midnightblue" stroke="midnightblue" points="133.224,-38.1243 140.726,-30.6426 130.196,-31.8133 133.224,-38.1243"/>
</g>
</g>
</svg>
