<?xml version="1.0" encoding="UTF-8" standalone="no"?>
<!DOCTYPE svg PUBLIC "-//W3C//DTD SVG 1.1//EN"
 "http://www.w3.org/Graphics/SVG/1.1/DTD/svg11.dtd">
<!-- Generated by graphviz version 2.38.0 (20140413.2041)
 -->
<!-- Title: _stukowin_installed_taxonomy_fields Pages: 1 -->
<svg width="241pt" height="66pt"
 viewBox="0.00 0.00 241.00 66.00" xmlns="http://www.w3.org/2000/svg" xmlns:xlink="http://www.w3.org/1999/xlink">
<g id="graph0" class="graph" transform="scale(1 1) rotate(0) translate(4 62)">
<title>_stukowin_installed_taxonomy_fields</title>
<polygon fill="white" stroke="none" points="-4,4 -4,-62 237,-62 237,4 -4,4"/>
<!-- Node1 -->
<g id="node1" class="node"><title>Node1</title>
<polygon fill="#bfbfbf" stroke="black" points="0,-14 0,-44 101,-44 101,-14 0,-14"/>
<text text-anchor="start" x="8" y="-32" font-family="Helvetica,sans-Serif" font-size="10.00">_stukowin_installed</text>
<text text-anchor="middle" x="50.5" y="-21" font-family="Helvetica,sans-Serif" font-size="10.00">_taxonomy_fields</text>
</g>
<!-- Node2 -->
<g id="node2" class="node"><title>Node2</title>
<g id="a_node2"><a xlink:href="group___stukowin___module.html#ga67989d3a763f2efa2fc0b07460639558" target="_top" xlink:title="Implements hook_install(). ">
<polygon fill="white" stroke="black" points="142,-38.5 142,-57.5 228,-57.5 228,-38.5 142,-38.5"/>
<text text-anchor="middle" x="185" y="-45.5" font-family="Helvetica,sans-Serif" font-size="10.00">stukowin_install</text>
</a>
</g>
</g>
<!-- Node1&#45;&gt;Node2 -->
<g id="edge1" class="edge"><title>Node1&#45;&gt;Node2</title>
<path fill="none" stroke="midnightblue" d="M111.381,-37.5868C121.653,-39.0597 132.132,-40.5623 141.816,-41.9509"/>
<polygon fill="midnightblue" stroke="midnightblue" points="111.611,-34.0839 101.215,-36.129 110.617,-41.013 111.611,-34.0839"/>
</g>
<!-- Node3 -->
<g id="node3" class="node"><title>Node3</title>
<g id="a_node3"><a xlink:href="group___stukowin___module.html#gad831696eae7eb1a0e48c4e9621323bca" target="_top" xlink:title="Implements hook_uninstall(). ">
<polygon fill="white" stroke="black" points="137,-0.5 137,-19.5 233,-19.5 233,-0.5 137,-0.5"/>
<text text-anchor="middle" x="185" y="-7.5" font-family="Helvetica,sans-Serif" font-size="10.00">stukowin_uninstall</text>
</a>
</g>
</g>
<!-- Node1&#45;&gt;Node3 -->
<g id="edge2" class="edge"><title>Node1&#45;&gt;Node3</title>
<path fill="none" stroke="midnightblue" d="M111.142,-20.4476C119.685,-19.2226 128.376,-17.9763 136.639,-16.7913"/>
<polygon fill="midnightblue" stroke="midnightblue" points="110.617,-16.987 101.215,-21.871 111.611,-23.9161 110.617,-16.987"/>
</g>
</g>
</svg>
